<?xml version="1.0" encoding="UTF-8" standalone="no"?>
<svg
   id="canvas"
   viewBox="297.412 413.026 1176.543 101.481"
   version="1.1"
   sodipodi:docname="digital-learning-management.svg"
   inkscape:version="1.3.2 (091e20e, 2023-11-25, custom)"
   xmlns:inkscape="http://www.inkscape.org/namespaces/inkscape"
   xmlns:sodipodi="http://sodipodi.sourceforge.net/DTD/sodipodi-0.dtd"
   xmlns="http://www.w3.org/2000/svg"
   xmlns:svg="http://www.w3.org/2000/svg">
  <defs
     id="defs32" />
  <sodipodi:namedview
     id="namedview32"
     pagecolor="#ffffff"
     bordercolor="#000000"
     borderopacity="0.25"
     inkscape:showpageshadow="2"
     inkscape:pageopacity="0.0"
     inkscape:pagecheckerboard="0"
     inkscape:deskcolor="#d1d1d1"
     inkscape:zoom="0.66771521"
     inkscape:cx="485.98564"
     inkscape:cy="108.57923"
     inkscape:window-width="1920"
     inkscape:window-height="1009"
     inkscape:window-x="-8"
     inkscape:window-y="-8"
     inkscape:window-maximized="1"
     inkscape:current-layer="canvas" />
  <g
     id="g64"
     style="stroke:#000000;stroke-opacity:1;stroke-width:4;stroke-dasharray:none;fill:#000000">
    <path
       d="M 316.65,428.08 C 315.87 428.45, 315.54 429.08, 314.82 430.38 C 314.09 431.67, 313.73 432.54, 313.02 434.55 C 312.31 436.56, 311.98 437.92, 311.26 440.43 C 310.55 442.93, 310.24 444.39, 309.43 447.09 C 308.62 449.78, 308.11 451.23, 307.20 453.91 C 306.29 456.59, 305.74 457.98, 304.87 460.47 C 304.00 462.96, 303.55 464.23, 302.84 466.36 C 302.12 468.49, 301.77 469.49, 301.29 471.10 C 300.81 472.72, 300.54 473.36, 300.44 474.42 C 300.33 475.48, 300.57 475.86, 300.76 476.39 C 300.94 476.92, 301.11 476.91, 301.36 477.07 C 301.60 477.23, 301.71 477.22, 302.00 477.20 C 302.28 477.18, 302.36 477.27, 302.78 476.97 C 303.21 476.68, 303.54 476.57, 304.11 475.72 C 304.68 474.87, 304.94 474.25, 305.63 472.73 C 306.32 471.20, 306.72 470.19, 307.56 468.10 C 308.39 466.01, 308.87 464.75, 309.81 462.28 C 310.75 459.80, 311.26 458.39, 312.26 455.71 C 313.26 453.03, 313.81 451.57, 314.79 448.86 C 315.77 446.16, 316.35 444.75, 317.15 442.20 C 317.96 439.66, 318.38 438.29, 318.81 436.15 C 319.24 434.01, 319.34 433.02, 319.31 431.50 C 319.29 429.98, 319.22 429.24, 318.69 428.55 C 318.16 427.87, 317.42 427.72, 316.65 428.08"
       style="stroke:#000000;fill:#000000;stroke-opacity:1;stroke-width:4;stroke-dasharray:none"
       id="path1" />
    <path
       d="M 311.03,428.39 C 311.72 428.56, 312.03 428.31, 312.87 427.99 C 313.72 427.66, 314.09 427.39, 315.26 426.76 C 316.43 426.13, 317.06 425.57, 318.72 424.83 C 320.38 424.09, 321.40 423.65, 323.56 423.06 C 325.71 422.46, 327.00 422.14, 329.49 421.84 C 331.98 421.54, 333.37 421.44, 336.01 421.56 C 338.64 421.67, 340.09 421.81, 342.66 422.41 C 345.23 423.01, 346.54 423.48, 348.85 424.56 C 351.15 425.64, 352.30 426.32, 354.18 427.81 C 356.06 429.31, 356.95 430.19, 358.26 432.05 C 359.58 433.91, 360.12 434.95, 360.76 437.11 C 361.40 439.26, 361.54 440.41, 361.48 442.81 C 361.41 445.21, 361.23 446.50, 360.44 449.13 C 359.65 451.75, 359.09 453.20, 357.54 455.95 C 355.99 458.69, 354.95 460.15, 352.70 462.85 C 350.45 465.56, 349.06 466.96, 346.28 469.47 C 343.51 471.97, 341.89 473.22, 338.81 475.38 C 335.73 477.55, 334.01 478.60, 330.90 480.30 C 327.78 482.00, 326.12 482.74, 323.23 483.88 C 320.35 485.03, 318.86 485.39, 316.46 486.04 C 314.07 486.68, 312.95 486.91, 311.24 487.11 C 309.52 487.30, 308.82 487.23, 307.89 487.01 C 306.96 486.80, 306.89 486.48, 306.60 486.02 C 306.30 485.56, 306.58 485.27, 306.42 484.71 C 306.27 484.14, 306.33 483.54, 305.81 483.17 C 305.28 482.81, 304.41 482.53, 303.78 482.89 C 303.15 483.25, 302.70 483.93, 302.66 484.97 C 302.61 486.01, 302.76 486.96, 303.55 488.09 C 304.34 489.22, 305.02 489.93, 306.60 490.62 C 308.17 491.30, 309.22 491.50, 311.45 491.51 C 313.67 491.51, 315.00 491.38, 317.70 490.66 C 320.40 489.94, 321.91 489.29, 324.95 487.92 C 327.98 486.55, 329.65 485.68, 332.87 483.81 C 336.10 481.94, 337.85 480.85, 341.06 478.57 C 344.27 476.30, 345.96 475.03, 348.92 472.43 C 351.88 469.84, 353.38 468.42, 355.88 465.58 C 358.39 462.75, 359.59 461.25, 361.44 458.25 C 363.29 455.26, 364.11 453.67, 365.12 450.61 C 366.13 447.54, 366.43 445.92, 366.50 442.94 C 366.58 439.95, 366.32 438.43, 365.48 435.68 C 364.64 432.94, 363.95 431.57, 362.32 429.21 C 360.70 426.86, 359.60 425.77, 357.35 423.91 C 355.10 422.05, 353.77 421.23, 351.08 419.92 C 348.39 418.60, 346.86 418.09, 343.90 417.34 C 340.95 416.58, 339.32 416.37, 336.32 416.15 C 333.32 415.94, 331.76 416.01, 328.91 416.26 C 326.07 416.51, 324.65 416.80, 322.11 417.40 C 319.57 417.99, 318.28 418.35, 316.23 419.26 C 314.19 420.17, 313.18 420.85, 311.88 421.97 C 310.57 423.09, 310.18 423.83, 309.69 424.86 C 309.20 425.89, 309.16 426.43, 309.43 427.13 C 309.70 427.84, 310.34 428.22, 311.03 428.39"
       style="stroke:#000000;fill:#000000;stroke-opacity:1;stroke-width:4;stroke-dasharray:none"
       id="path2" />
    <path
       d="M 378.95,452.32 C 378.26 452.46, 378.10 452.71, 377.38 453.49 C 376.66 454.27, 376.17 454.77, 375.35 456.21 C 374.53 457.66, 374.12 458.77, 373.28 460.71 C 372.45 462.65, 372.01 463.86, 371.16 465.91 C 370.31 467.96, 369.77 469.10, 369.05 470.96 C 368.33 472.82, 367.92 473.76, 367.57 475.20 C 367.21 476.63, 367.26 477.22, 367.28 478.12 C 367.31 479.02, 367.40 479.30, 367.70 479.69 C 368.01 480.08, 368.35 480.17, 368.82 480.07 C 369.29 479.97, 369.45 479.81, 370.07 479.21 C 370.68 478.61, 371.10 478.27, 371.89 477.08 C 372.68 475.89, 373.08 474.98, 374.01 473.25 C 374.95 471.52, 375.54 470.43, 376.58 468.45 C 377.61 466.46, 378.30 465.32, 379.20 463.35 C 380.11 461.38, 380.61 460.28, 381.09 458.60 C 381.57 456.91, 381.65 456.10, 381.60 454.94 C 381.55 453.77, 381.36 453.29, 380.83 452.77 C 380.30 452.24, 379.64 452.17, 378.95 452.32"
       style="stroke:#000000;fill:#000000;stroke-opacity:1;stroke-width:4;stroke-dasharray:none"
       id="path3" />
    <path
       d="M 391.19,430.45 C 391.78 430.37, 391.79 430.44, 391.42 430.94 C 391.05 431.45, 389.81 432.66, 389.35 432.98 C 388.89 433.29, 388.74 433.29, 389.12 432.52 C 389.50 431.74, 390.97 429.95, 391.23 429.10 C 391.48 428.25, 391.02 427.99, 390.41 428.27 C 389.79 428.55, 388.52 429.89, 388.14 430.50 C 387.75 431.12, 387.87 431.36, 388.48 431.35 C 389.09 431.34, 390.61 430.54, 391.19 430.45"
       style="stroke:#000000;fill:#000000;stroke-opacity:1;stroke-width:4;stroke-dasharray:none"
       id="path4" />
    <path
       d="M 420.31,456.87 C 420.45 456.07, 420.20 455.43, 419.53 454.61 C 418.86 453.79, 418.27 453.30, 416.96 452.77 C 415.65 452.23, 414.67 451.98, 412.97 451.93 C 411.26 451.89, 410.31 452.08, 408.43 452.54 C 406.55 453.00, 405.51 453.34, 403.58 454.23 C 401.64 455.13, 400.53 455.74, 398.75 457.01 C 396.97 458.29, 396.02 459.10, 394.69 460.61 C 393.35 462.11, 392.71 462.97, 392.06 464.52 C 391.41 466.08, 391.23 466.97, 391.43 468.39 C 391.64 469.81, 392.04 470.62, 393.07 471.62 C 394.11 472.62, 394.97 473.06, 396.63 473.37 C 398.29 473.68, 399.35 473.59, 401.37 473.17 C 403.39 472.75, 404.56 472.25, 406.73 471.27 C 408.90 470.29, 410.10 469.57, 412.22 468.27 C 414.34 466.97, 415.47 466.16, 417.30 464.75 C 419.14 463.34, 420.06 462.55, 421.40 461.23 C 422.74 459.91, 423.41 459.28, 423.99 458.17 C 424.56 457.06, 424.61 456.41, 424.28 455.67 C 423.95 454.94, 423.27 454.49, 422.33 454.49 C 421.38 454.49, 420.55 454.72, 419.54 455.67 C 418.53 456.61, 418.08 457.50, 417.27 459.21 C 416.46 460.93, 416.20 462.11, 415.48 464.26 C 414.77 466.41, 414.39 467.64, 413.72 469.97 C 413.04 472.29, 412.72 473.54, 412.11 475.89 C 411.51 478.23, 411.24 479.43, 410.70 481.68 C 410.16 483.93, 409.92 485.06, 409.40 487.12 C 408.87 489.18, 408.64 490.20, 408.06 491.99 C 407.49 493.78, 407.21 494.62, 406.52 496.09 C 405.82 497.55, 405.44 498.19, 404.58 499.33 C 403.73 500.47, 403.24 500.95, 402.24 501.78 C 401.23 502.60, 400.69 502.93, 399.55 503.44 C 398.42 503.95, 397.80 504.11, 396.58 504.35 C 395.37 504.58, 394.69 504.64, 393.48 504.62 C 392.27 504.60, 391.63 504.51, 390.53 504.24 C 389.42 503.97, 388.86 503.75, 387.96 503.29 C 387.06 502.83, 386.60 502.54, 386.02 501.93 C 385.43 501.32, 385.21 501.02, 385.03 500.24 C 384.84 499.46, 385.05 498.98, 385.08 498.05 C 385.12 497.13, 385.28 496.55, 385.18 495.61 C 385.08 494.67, 385.08 493.95, 384.58 493.36 C 384.07 492.77, 383.45 492.43, 382.65 492.66 C 381.84 492.88, 381.15 493.44, 380.57 494.49 C 379.98 495.54, 379.75 496.46, 379.71 497.91 C 379.68 499.37, 379.86 500.31, 380.40 501.76 C 380.95 503.21, 381.42 503.98, 382.44 505.15 C 383.47 506.33, 384.16 506.84, 385.52 507.64 C 386.89 508.45, 387.68 508.75, 389.25 509.17 C 390.83 509.60, 391.72 509.74, 393.40 509.76 C 395.07 509.79, 395.98 509.68, 397.63 509.31 C 399.29 508.93, 400.14 508.66, 401.68 507.90 C 403.22 507.14, 403.99 506.64, 405.34 505.51 C 406.69 504.38, 407.31 503.69, 408.42 502.23 C 409.52 500.77, 410.00 499.95, 410.87 498.22 C 411.74 496.49, 412.08 495.53, 412.77 493.58 C 413.46 491.62, 413.72 490.56, 414.31 488.44 C 414.91 486.32, 415.14 485.19, 415.74 482.97 C 416.34 480.75, 416.64 479.59, 417.31 477.34 C 417.99 475.09, 418.36 473.89, 419.14 471.71 C 419.91 469.53, 420.34 468.37, 421.19 466.44 C 422.04 464.50, 422.70 463.61, 423.40 462.03 C 424.10 460.46, 424.51 459.75, 424.70 458.56 C 424.89 457.36, 424.71 456.81, 424.34 456.06 C 423.98 455.31, 423.57 454.96, 422.88 454.80 C 422.19 454.64, 421.84 454.73, 420.89 455.25 C 419.93 455.77, 419.45 456.38, 418.09 457.39 C 416.73 458.39, 415.86 459.11, 414.10 460.28 C 412.34 461.45, 411.24 462.15, 409.27 463.24 C 407.30 464.33, 406.14 464.90, 404.25 465.74 C 402.37 466.58, 401.34 466.90, 399.83 467.42 C 398.33 467.94, 397.65 468.08, 396.72 468.35 C 395.78 468.61, 395.49 468.73, 395.14 468.74 C 394.79 468.74, 394.78 468.73, 394.96 468.35 C 395.15 467.97, 395.36 467.62, 396.07 466.82 C 396.77 466.03, 397.28 465.41, 398.47 464.39 C 399.65 463.37, 400.48 462.71, 401.99 461.73 C 403.51 460.74, 404.45 460.20, 406.02 459.46 C 407.59 458.71, 408.47 458.38, 409.84 458.00 C 411.21 457.61, 411.81 457.54, 412.87 457.55 C 413.93 457.55, 414.33 457.81, 415.14 458.01 C 415.95 458.21, 416.17 458.43, 416.91 458.55 C 417.64 458.67, 418.15 458.94, 418.83 458.60 C 419.51 458.27, 420.17 457.67, 420.31 456.87"
       style="stroke:#000000;fill:#000000;stroke-opacity:1;stroke-width:4;stroke-dasharray:none"
       id="path5" />
    <path
       d="M 447.10,452.67 C 446.39 452.61, 446.07 452.77, 445.27 453.32 C 444.48 453.87, 443.98 454.28, 443.12 455.41 C 442.26 456.55, 441.79 457.42, 440.95 459.00 C 440.12 460.57, 439.73 461.60, 438.95 463.27 C 438.18 464.94, 437.74 465.83, 437.09 467.36 C 436.43 468.88, 436.06 469.67, 435.67 470.88 C 435.28 472.10, 435.13 472.64, 435.12 473.45 C 435.11 474.27, 435.40 474.56, 435.63 474.96 C 435.85 475.36, 436.03 475.32, 436.25 475.44 C 436.47 475.57, 436.48 475.56, 436.73 475.58 C 436.98 475.61, 437.09 475.74, 437.49 475.59 C 437.90 475.44, 438.27 475.39, 438.78 474.84 C 439.28 474.30, 439.41 473.88, 440.04 472.88 C 440.66 471.87, 441.05 471.19, 441.88 469.83 C 442.71 468.47, 443.24 467.62, 444.19 466.08 C 445.13 464.53, 445.76 463.64, 446.63 462.11 C 447.50 460.59, 448.02 459.76, 448.53 458.44 C 449.04 457.12, 449.13 456.49, 449.19 455.52 C 449.24 454.56, 449.22 454.20, 448.80 453.63 C 448.38 453.06, 447.80 452.73, 447.10 452.67"
       style="stroke:#000000;fill:#000000;stroke-opacity:1;stroke-width:4;stroke-dasharray:none"
       id="path6" />
    <path
       d="M 458.05,427.76 C 458.55 427.62, 458.53 427.38, 458.00 427.35 C 457.48 427.33, 455.94 427.49, 455.44 427.63 C 454.93 427.77, 454.96 428.01, 455.48 428.03 C 456.00 428.06, 457.54 427.89, 458.05 427.76"
       style="stroke:#000000;fill:#000000;stroke-opacity:1;stroke-width:4;stroke-dasharray:none"
       id="path7" />
    <path
       d="M 481.25,423.52 C 480.50 423.72, 480.24 424.15, 479.42 425.14 C 478.59 426.13, 478.15 426.75, 477.13 428.48 C 476.11 430.20, 475.50 431.40, 474.31 433.78 C 473.12 436.15, 472.54 437.67, 471.16 440.37 C 469.77 443.08, 468.90 444.57, 467.39 447.29 C 465.88 450.01, 464.97 451.41, 463.60 453.96 C 462.24 456.52, 461.60 457.83, 460.57 460.07 C 459.55 462.30, 459.11 463.35, 458.48 465.15 C 457.85 466.94, 457.62 467.75, 457.42 469.02 C 457.21 470.29, 457.30 470.76, 457.44 471.50 C 457.58 472.25, 457.71 472.41, 458.12 472.73 C 458.53 473.05, 459.08 473.12, 459.49 473.11 C 459.91 473.10, 460.42 472.90, 460.21 472.69 C 459.99 472.48, 458.68 472.13, 458.42 472.06 C 458.16 471.98, 458.59 472.24, 458.89 472.32 C 459.20 472.39, 459.61 472.53, 459.95 472.43 C 460.29 472.33, 460.33 472.30, 460.60 471.83 C 460.86 471.37, 460.86 471.09, 461.28 470.10 C 461.71 469.11, 461.97 468.46, 462.72 466.89 C 463.47 465.32, 463.95 464.34, 465.03 462.24 C 466.12 460.15, 466.81 458.91, 468.16 456.42 C 469.51 453.92, 470.24 452.46, 471.79 449.79 C 473.34 447.11, 474.29 445.67, 475.91 443.05 C 477.52 440.43, 478.54 439.10, 479.86 436.70 C 481.19 434.30, 481.79 433.02, 482.53 431.04 C 483.27 429.06, 483.43 428.18, 483.56 426.81 C 483.68 425.43, 483.62 424.83, 483.16 424.17 C 482.70 423.51, 482.00 423.33, 481.25 423.52"
       style="stroke:#000000;fill:#000000;stroke-opacity:1;stroke-width:4;stroke-dasharray:none"
       id="path8" />
    <path
       d="M 457.84,455.24 C 458.34 455.79, 458.77 455.87, 459.85 456.05 C 460.93 456.23, 461.62 456.24, 463.25 456.14 C 464.89 456.03, 465.95 455.79, 468.02 455.53 C 470.10 455.28, 471.32 455.14, 473.63 454.87 C 475.95 454.60, 477.44 454.46, 479.60 454.20 C 481.76 453.94, 482.85 453.85, 484.45 453.55 C 486.05 453.25, 486.62 453.01, 487.58 452.69 C 488.54 452.36, 488.89 452.35, 489.25 451.93 C 489.61 451.51, 489.71 451.10, 489.39 450.61 C 489.08 450.12, 488.70 449.88, 487.68 449.49 C 486.66 449.11, 485.99 448.87, 484.29 448.67 C 482.60 448.47, 481.45 448.48, 479.21 448.52 C 476.97 448.55, 475.47 448.69, 473.09 448.85 C 470.70 449.01, 469.46 449.06, 467.29 449.31 C 465.11 449.56, 463.90 449.64, 462.22 450.11 C 460.53 450.57, 459.82 451.00, 458.85 451.65 C 457.88 452.29, 457.57 452.61, 457.37 453.33 C 457.16 454.04, 457.35 454.70, 457.84 455.24"
       style="stroke:#000000;fill:#000000;stroke-opacity:1;stroke-width:4;stroke-dasharray:none"
       id="path9" />
    <path
       d="M 516.51,452.96 C 516.58 452.18, 516.33 451.66, 515.65 450.94 C 514.96 450.22, 514.38 449.79, 513.08 449.37 C 511.78 448.95, 510.84 448.80, 509.15 448.85 C 507.47 448.89, 506.55 449.10, 504.66 449.61 C 502.76 450.11, 501.69 450.45, 499.68 451.39 C 497.68 452.32, 496.55 452.96, 494.65 454.29 C 492.75 455.61, 491.74 456.46, 490.18 458.01 C 488.63 459.56, 487.86 460.44, 486.87 462.06 C 485.89 463.68, 485.48 464.57, 485.24 466.13 C 485.00 467.68, 485.10 468.55, 485.67 469.85 C 486.24 471.15, 486.82 471.83, 488.08 472.63 C 489.35 473.44, 490.26 473.73, 492.01 473.88 C 493.76 474.02, 494.81 473.85, 496.84 473.36 C 498.87 472.86, 499.99 472.39, 502.15 471.40 C 504.32 470.40, 505.53 469.74, 507.67 468.38 C 509.81 467.02, 510.95 466.16, 512.85 464.61 C 514.76 463.05, 515.71 462.14, 517.18 460.61 C 518.66 459.09, 519.51 458.36, 520.25 457.00 C 520.98 455.64, 521.15 454.73, 520.87 453.80 C 520.58 452.87, 519.85 452.39, 518.80 452.34 C 517.75 452.29, 516.82 452.60, 515.60 453.55 C 514.38 454.49, 513.67 455.39, 512.69 457.06 C 511.72 458.74, 511.38 460.02, 510.73 461.92 C 510.07 463.81, 509.72 464.81, 509.42 466.55 C 509.12 468.28, 509.03 469.12, 509.22 470.58 C 509.42 472.05, 509.63 472.73, 510.39 473.87 C 511.14 475.01, 511.74 475.64, 513.01 476.30 C 514.28 476.97, 515.32 477.22, 516.73 477.20 C 518.15 477.19, 519.04 476.89, 520.09 476.24 C 521.13 475.60, 521.72 474.84, 521.95 473.97 C 522.18 473.10, 521.87 472.46, 521.23 471.89 C 520.58 471.33, 519.73 471.25, 518.74 471.14 C 517.75 471.03, 517.16 471.19, 516.29 471.35 C 515.41 471.52, 514.92 471.86, 514.35 471.96 C 513.77 472.06, 513.62 472.13, 513.43 471.85 C 513.24 471.57, 513.23 471.33, 513.42 470.56 C 513.60 469.79, 513.77 469.21, 514.34 468.01 C 514.91 466.80, 515.36 465.98, 516.28 464.52 C 517.20 463.05, 518.08 462.18, 518.94 460.67 C 519.81 459.15, 520.26 458.28, 520.59 456.94 C 520.92 455.61, 520.92 454.82, 520.59 453.98 C 520.27 453.14, 519.77 452.74, 518.96 452.73 C 518.15 452.72, 517.64 453.11, 516.55 453.93 C 515.47 454.75, 514.98 455.57, 513.55 456.83 C 512.13 458.10, 511.22 458.92, 509.44 460.25 C 507.66 461.58, 506.60 462.34, 504.65 463.50 C 502.71 464.66, 501.59 465.23, 499.73 466.07 C 497.86 466.92, 496.87 467.24, 495.31 467.73 C 493.74 468.21, 493.01 468.29, 491.90 468.50 C 490.79 468.70, 490.36 468.75, 489.75 468.75 C 489.15 468.75, 488.99 468.80, 488.88 468.50 C 488.78 468.20, 488.82 467.96, 489.22 467.25 C 489.62 466.53, 489.94 465.98, 490.87 464.94 C 491.81 463.89, 492.49 463.19, 493.88 462.01 C 495.28 460.83, 496.21 460.11, 497.86 459.04 C 499.51 457.96, 500.48 457.40, 502.15 456.61 C 503.81 455.82, 504.73 455.50, 506.17 455.09 C 507.61 454.68, 508.23 454.60, 509.34 454.55 C 510.45 454.51, 510.88 454.76, 511.72 454.87 C 512.57 454.98, 512.84 455.12, 513.56 455.11 C 514.28 455.10, 514.72 455.23, 515.32 454.80 C 515.91 454.37, 516.45 453.73, 516.51 452.96"
       style="stroke:#000000;fill:#000000;stroke-opacity:1;stroke-width:4;stroke-dasharray:none"
       id="path10" />
    <path
       d="M 554.35,425.85 C 553.61 425.97, 553.34 426.26, 552.48 427.17 C 551.62 428.07, 551.09 428.68, 550.04 430.37 C 549.00 432.05, 548.43 433.25, 547.26 435.61 C 546.09 437.97, 545.53 439.49, 544.21 442.15 C 542.89 444.81, 542.06 446.27, 540.68 448.92 C 539.30 451.58, 538.48 452.95, 537.33 455.43 C 536.18 457.91, 535.67 459.15, 534.95 461.31 C 534.22 463.46, 533.94 464.44, 533.69 466.21 C 533.44 467.97, 533.42 468.81, 533.69 470.14 C 533.96 471.47, 534.42 472.08, 535.03 472.84 C 535.65 473.59, 536.16 473.76, 536.78 473.92 C 537.40 474.07, 537.81 473.97, 538.14 473.62 C 538.48 473.26, 538.46 472.56, 538.47 472.13 C 538.48 471.70, 538.28 471.72, 538.19 471.47 C 538.10 471.21, 538.14 471.22, 538.00 470.85 C 537.87 470.48, 537.53 470.37, 537.52 469.62 C 537.51 468.87, 537.55 468.40, 537.94 467.08 C 538.32 465.77, 538.63 464.91, 539.45 463.04 C 540.27 461.16, 540.86 460.03, 542.03 457.71 C 543.21 455.38, 543.91 453.99, 545.33 451.41 C 546.76 448.84, 547.64 447.40, 549.16 444.83 C 550.68 442.25, 551.65 440.88, 552.91 438.52 C 554.17 436.16, 554.76 434.94, 555.48 433.04 C 556.20 431.13, 556.38 430.29, 556.52 429.00 C 556.65 427.71, 556.58 427.20, 556.15 426.57 C 555.72 425.94, 555.08 425.73, 554.35 425.85"
       style="stroke:#000000;fill:#000000;stroke-opacity:1;stroke-width:4;stroke-dasharray:none"
       id="path11" />
    <path
       d="M 646.04,419.57 C 645.35 419.53, 645.15 419.71, 644.28 420.30 C 643.42 420.90, 642.88 421.25, 641.74 422.56 C 640.59 423.87, 639.96 424.83, 638.55 426.87 C 637.13 428.92, 636.39 430.26, 634.67 432.78 C 632.95 435.30, 631.95 436.76, 629.96 439.47 C 627.97 442.17, 626.80 443.64, 624.74 446.30 C 622.67 448.96, 621.51 450.32, 619.63 452.78 C 617.76 455.25, 616.78 456.45, 615.35 458.64 C 613.92 460.84, 613.33 461.89, 612.49 463.77 C 611.66 465.64, 611.36 466.45, 611.19 467.99 C 611.02 469.54, 611.12 470.25, 611.65 471.47 C 612.17 472.69, 612.67 473.29, 613.82 474.09 C 614.98 474.90, 615.76 475.20, 617.44 475.49 C 619.12 475.77, 620.11 475.69, 622.20 475.52 C 624.30 475.34, 625.48 475.05, 627.91 474.61 C 630.35 474.16, 631.72 473.83, 634.36 473.28 C 637.01 472.72, 638.48 472.39, 641.15 471.83 C 643.83 471.27, 645.24 470.95, 647.74 470.47 C 650.24 469.99, 651.48 469.78, 653.66 469.42 C 655.84 469.06, 656.97 469.00, 658.65 468.68 C 660.33 468.37, 660.98 468.21, 662.06 467.84 C 663.15 467.47, 663.68 467.32, 664.07 466.82 C 664.47 466.32, 664.48 465.82, 664.05 465.34 C 663.61 464.86, 663.09 464.68, 661.92 464.40 C 660.76 464.12, 660.02 463.95, 658.22 463.95 C 656.43 463.94, 655.23 464.11, 652.95 464.38 C 650.68 464.64, 649.40 464.88, 646.83 465.28 C 644.26 465.68, 642.83 465.92, 640.12 466.39 C 637.40 466.85, 635.91 467.14, 633.26 467.61 C 630.61 468.09, 629.23 468.37, 626.88 468.77 C 624.53 469.16, 623.38 469.33, 621.53 469.60 C 619.69 469.87, 618.88 469.94, 617.65 470.11 C 616.43 470.28, 616.03 470.42, 615.41 470.45 C 614.80 470.48, 614.68 470.60, 614.58 470.27 C 614.48 469.95, 614.52 469.72, 614.90 468.83 C 615.27 467.94, 615.56 467.31, 616.47 465.82 C 617.37 464.33, 618.03 463.41, 619.44 461.37 C 620.84 459.34, 621.68 458.09, 623.47 455.64 C 625.26 453.19, 626.31 451.77, 628.37 449.12 C 630.43 446.48, 631.62 445.02, 633.76 442.42 C 635.90 439.82, 637.09 438.49, 639.07 436.11 C 641.05 433.73, 642.15 432.57, 643.66 430.53 C 645.16 428.49, 645.76 427.49, 646.60 425.91 C 647.45 424.33, 647.66 423.70, 647.88 422.62 C 648.11 421.54, 648.08 421.10, 647.71 420.49 C 647.34 419.88, 646.73 419.60, 646.04 419.57"
       style="stroke:#000000;fill:#000000;stroke-opacity:1;stroke-width:4;stroke-dasharray:none"
       id="path12" />
    <path
       d="M 685.22,459.46 C 685.74 459.97, 686.15 460.05, 687.11 460.12 C 688.07 460.20, 688.67 460.16, 690.01 459.83 C 691.35 459.49, 692.21 459.14, 693.82 458.45 C 695.44 457.76, 696.36 457.26, 698.08 456.38 C 699.80 455.50, 700.78 455.01, 702.41 454.05 C 704.04 453.10, 704.90 452.61, 706.23 451.62 C 707.55 450.62, 708.22 450.18, 709.05 449.08 C 709.88 447.99, 710.26 447.35, 710.38 446.14 C 710.51 444.92, 710.39 444.08, 709.67 443.00 C 708.94 441.93, 708.28 441.31, 706.76 440.75 C 705.23 440.20, 704.20 440.08, 702.05 440.23 C 699.90 440.37, 698.59 440.66, 696.01 441.48 C 693.43 442.31, 691.93 443.00, 689.16 444.35 C 686.38 445.71, 684.83 446.62, 682.14 448.26 C 679.46 449.90, 677.96 450.77, 675.73 452.56 C 673.49 454.36, 672.45 455.37, 670.96 457.23 C 669.48 459.10, 668.88 460.05, 668.28 461.87 C 667.68 463.69, 667.60 464.66, 667.97 466.34 C 668.34 468.03, 668.83 468.94, 670.13 470.29 C 671.42 471.63, 672.40 472.23, 674.44 473.06 C 676.49 473.90, 677.78 474.11, 680.37 474.47 C 682.96 474.84, 684.45 474.90, 687.40 474.89 C 690.35 474.87, 692.26 474.78, 695.10 474.40 C 697.95 474.02, 699.47 473.66, 701.61 472.98 C 703.75 472.30, 705.02 471.76, 705.80 471.00 C 706.58 470.24, 706.47 469.67, 705.52 469.18 C 704.57 468.69, 703.23 468.67, 701.05 468.53 C 698.87 468.40, 697.36 468.43, 694.62 468.51 C 691.87 468.60, 690.05 468.91, 687.34 468.95 C 684.63 468.99, 683.29 468.94, 681.05 468.73 C 678.81 468.52, 677.77 468.27, 676.15 467.89 C 674.53 467.52, 673.87 467.33, 672.94 466.85 C 672.02 466.37, 671.71 466.19, 671.52 465.51 C 671.33 464.82, 671.39 464.44, 671.98 463.42 C 672.58 462.40, 673.08 461.74, 674.48 460.41 C 675.88 459.08, 676.89 458.29, 678.96 456.77 C 681.04 455.25, 682.34 454.27, 684.85 452.82 C 687.37 451.37, 688.93 450.63, 691.52 449.53 C 694.12 448.43, 695.57 447.99, 697.82 447.32 C 700.07 446.65, 701.15 446.48, 702.77 446.16 C 704.39 445.85, 705.01 445.91, 705.92 445.76 C 706.82 445.62, 707.04 445.53, 707.32 445.43 C 707.60 445.33, 707.57 445.15, 707.31 445.25 C 707.06 445.34, 706.80 445.48, 706.04 445.89 C 705.27 446.30, 704.72 446.66, 703.48 447.31 C 702.23 447.95, 701.39 448.38, 699.81 449.12 C 698.23 449.86, 697.25 450.30, 695.57 451.01 C 693.89 451.72, 692.95 452.03, 691.40 452.67 C 689.85 453.31, 689.00 453.55, 687.83 454.19 C 686.66 454.83, 686.19 455.20, 685.53 455.87 C 684.88 456.54, 684.61 456.83, 684.55 457.55 C 684.49 458.27, 684.71 458.94, 685.22 459.46"
       style="stroke:#000000;fill:#000000;stroke-opacity:1;stroke-width:4;stroke-dasharray:none"
       id="path13" />
    <path
       d="M 745.53,450.94 C 745.77 450.22, 745.68 449.69, 745.23 448.93 C 744.77 448.17, 744.31 447.71, 743.25 447.15 C 742.19 446.58, 741.41 446.31, 739.93 446.11 C 738.44 445.92, 737.60 445.95, 735.84 446.17 C 734.07 446.39, 733.09 446.56, 731.11 447.21 C 729.14 447.87, 728.01 448.33, 725.96 449.42 C 723.92 450.52, 722.79 451.25, 720.90 452.68 C 719.01 454.11, 718.02 454.96, 716.52 456.56 C 715.02 458.17, 714.29 459.05, 713.38 460.71 C 712.47 462.36, 712.14 463.25, 711.98 464.82 C 711.83 466.39, 711.97 467.23, 712.60 468.54 C 713.22 469.85, 713.80 470.52, 715.10 471.35 C 716.41 472.18, 717.32 472.49, 719.12 472.68 C 720.93 472.87, 722.01 472.74, 724.10 472.29 C 726.19 471.84, 727.35 471.40, 729.58 470.43 C 731.80 469.46, 733.02 468.80, 735.23 467.45 C 737.43 466.10, 738.60 465.24, 740.60 463.67 C 742.60 462.10, 743.60 461.18, 745.22 459.60 C 746.85 458.02, 747.75 457.23, 748.71 455.79 C 749.67 454.34, 750.06 453.45, 750.05 452.37 C 750.03 451.29, 749.51 450.71, 748.63 450.39 C 747.75 450.08, 746.86 450.15, 745.65 450.79 C 744.43 451.43, 743.63 452.14, 742.56 453.59 C 741.49 455.03, 741.08 456.22, 740.31 458.02 C 739.53 459.81, 739.16 460.85, 738.70 462.56 C 738.24 464.28, 737.99 465.18, 738.01 466.60 C 738.02 468.01, 738.33 468.77, 738.77 469.65 C 739.22 470.53, 739.66 470.84, 740.24 471.00 C 740.83 471.16, 741.32 470.84, 741.69 470.45 C 742.06 470.06, 741.94 469.68, 742.10 469.03 C 742.27 468.38, 742.19 468.10, 742.52 467.20 C 742.84 466.30, 743.04 465.76, 743.73 464.53 C 744.42 463.29, 745.01 462.47, 745.96 461.04 C 746.92 459.61, 747.74 458.79, 748.50 457.36 C 749.26 455.93, 749.61 455.08, 749.77 453.87 C 749.93 452.67, 749.77 451.97, 749.32 451.34 C 748.87 450.70, 748.38 450.48, 747.51 450.72 C 746.63 450.95, 746.13 451.50, 744.95 452.50 C 743.78 453.50, 743.17 454.37, 741.63 455.73 C 740.09 457.08, 739.12 457.90, 737.26 459.27 C 735.39 460.64, 734.29 461.40, 732.30 462.57 C 730.30 463.73, 729.19 464.30, 727.28 465.11 C 725.37 465.93, 724.38 466.22, 722.76 466.65 C 721.15 467.08, 720.38 467.13, 719.21 467.27 C 718.04 467.42, 717.58 467.43, 716.91 467.36 C 716.25 467.29, 716.06 467.28, 715.87 466.93 C 715.68 466.58, 715.66 466.34, 715.97 465.62 C 716.27 464.90, 716.53 464.37, 717.39 463.32 C 718.24 462.27, 718.88 461.57, 720.25 460.36 C 721.62 459.15, 722.53 458.43, 724.22 457.26 C 725.90 456.10, 726.94 455.47, 728.69 454.55 C 730.44 453.63, 731.39 453.23, 732.97 452.67 C 734.56 452.10, 735.37 451.93, 736.62 451.73 C 737.87 451.53, 738.35 451.55, 739.22 451.66 C 740.08 451.76, 740.31 452.05, 740.94 452.26 C 741.58 452.46, 741.77 452.62, 742.38 452.67 C 742.99 452.72, 743.37 452.86, 743.99 452.52 C 744.62 452.17, 745.28 451.66, 745.53 450.94"
       style="stroke:#000000;fill:#000000;stroke-opacity:1;stroke-width:4;stroke-dasharray:none"
       id="path14" />
    <path
       d="M 765.64,454.05 C 764.90 454.06, 764.56 454.34, 763.77 454.94 C 762.98 455.55, 762.52 456.00, 761.69 457.09 C 760.87 458.17, 760.40 459.02, 759.65 460.35 C 758.90 461.69, 758.49 462.53, 757.93 463.75 C 757.38 464.98, 756.99 465.57, 756.87 466.49 C 756.75 467.41, 756.89 467.87, 757.35 468.34 C 757.81 468.82, 758.39 469.03, 759.17 468.88 C 759.94 468.72, 760.45 468.43, 761.22 467.59 C 761.99 466.74, 762.23 465.98, 763.01 464.64 C 763.78 463.29, 764.10 462.35, 765.11 460.87 C 766.12 459.39, 766.78 458.58, 768.08 457.24 C 769.38 455.90, 770.17 455.23, 771.62 454.16 C 773.06 453.09, 773.88 452.62, 775.31 451.89 C 776.73 451.16, 777.46 450.89, 778.75 450.52 C 780.05 450.16, 780.65 450.14, 781.79 450.07 C 782.93 450.00, 783.55 450.21, 784.45 450.16 C 785.35 450.12, 785.66 450.03, 786.29 449.86 C 786.92 449.69, 787.24 449.71, 787.60 449.31 C 787.96 448.92, 788.19 448.45, 788.08 447.90 C 787.98 447.35, 787.72 447.05, 787.10 446.57 C 786.47 446.09, 786.08 445.78, 784.96 445.52 C 783.85 445.25, 783.00 445.17, 781.52 445.25 C 780.03 445.32, 779.21 445.48, 777.54 445.89 C 775.87 446.30, 774.96 446.53, 773.16 447.31 C 771.37 448.09, 770.37 448.61, 768.58 449.78 C 766.78 450.96, 765.85 451.72, 764.20 453.20 C 762.56 454.67, 761.75 455.56, 760.36 457.17 C 758.97 458.79, 758.19 459.68, 757.25 461.26 C 756.32 462.84, 755.90 463.71, 755.67 465.06 C 755.43 466.42, 755.61 467.12, 756.10 468.02 C 756.58 468.93, 757.19 469.35, 758.08 469.57 C 758.96 469.80, 759.58 469.69, 760.52 469.16 C 761.47 468.62, 761.86 467.98, 762.80 466.89 C 763.73 465.81, 764.33 465.08, 765.20 463.74 C 766.08 462.41, 766.64 461.54, 767.19 460.21 C 767.73 458.87, 767.88 458.13, 767.94 457.07 C 768.00 456.01, 767.96 455.52, 767.50 454.92 C 767.04 454.31, 766.38 454.04, 765.64 454.05"
       style="stroke:#000000;fill:#000000;stroke-opacity:1;stroke-width:4;stroke-dasharray:none"
       id="path15" />
    <path
       d="M 806.16,448.33 C 805.46 448.27, 805.14 448.43, 804.31 448.99 C 803.48 449.55, 802.96 449.96, 801.99 451.12 C 801.01 452.29, 800.48 453.21, 799.45 454.83 C 798.41 456.45, 797.85 457.48, 796.81 459.22 C 795.77 460.96, 795.14 461.94, 794.26 463.52 C 793.37 465.09, 792.82 465.83, 792.38 467.09 C 791.95 468.35, 791.82 468.97, 792.09 469.81 C 792.36 470.64, 792.88 471.07, 793.73 471.28 C 794.57 471.48, 795.25 471.44, 796.31 470.83 C 797.37 470.23, 797.85 469.59, 799.03 468.25 C 800.21 466.91, 800.73 465.85, 802.22 464.12 C 803.71 462.39, 804.65 461.36, 806.48 459.60 C 808.30 457.84, 809.42 456.86, 811.36 455.31 C 813.30 453.76, 814.38 452.99, 816.18 451.84 C 817.98 450.69, 818.93 450.22, 820.35 449.54 C 821.78 448.86, 822.44 448.66, 823.33 448.44 C 824.21 448.22, 824.45 448.23, 824.78 448.45 C 825.12 448.66, 825.06 448.85, 824.98 449.53 C 824.90 450.22, 824.71 450.68, 824.37 451.87 C 824.03 453.06, 823.79 453.90, 823.28 455.48 C 822.77 457.06, 822.43 458.05, 821.82 459.77 C 821.22 461.49, 820.80 462.47, 820.26 464.08 C 819.72 465.68, 819.44 466.52, 819.11 467.80 C 818.77 469.09, 818.66 469.64, 818.59 470.52 C 818.52 471.40, 818.54 471.69, 818.76 472.22 C 818.98 472.74, 819.36 472.94, 819.69 473.12 C 820.02 473.31, 820.32 473.25, 820.42 473.15 C 820.53 473.05, 820.15 472.70, 820.20 472.62 C 820.24 472.54, 820.39 472.75, 820.66 472.77 C 820.92 472.78, 821.20 472.90, 821.54 472.69 C 821.89 472.48, 821.96 472.36, 822.38 471.73 C 822.79 471.09, 823.04 470.64, 823.62 469.52 C 824.20 468.40, 824.56 467.65, 825.29 466.13 C 826.02 464.60, 826.52 463.67, 827.28 461.89 C 828.03 460.11, 828.54 459.08, 829.06 457.21 C 829.59 455.34, 829.88 454.29, 829.89 452.53 C 829.90 450.77, 829.75 449.82, 829.11 448.43 C 828.47 447.03, 827.89 446.35, 826.69 445.56 C 825.49 444.77, 824.70 444.54, 823.10 444.46 C 821.50 444.38, 820.59 444.58, 818.69 445.17 C 816.79 445.75, 815.72 446.24, 813.59 447.38 C 811.45 448.52, 810.24 449.29, 808.02 450.86 C 805.80 452.43, 804.59 453.42, 802.50 455.21 C 800.41 457.01, 799.31 458.04, 797.56 459.83 C 795.81 461.61, 794.84 462.55, 793.74 464.15 C 792.64 465.75, 792.28 466.60, 792.04 467.84 C 791.81 469.07, 792.10 469.67, 792.58 470.32 C 793.06 470.96, 793.64 471.20, 794.44 471.06 C 795.23 470.92, 795.66 470.52, 796.54 469.61 C 797.42 468.69, 797.78 467.90, 798.84 466.50 C 799.89 465.09, 800.60 464.19, 801.81 462.57 C 803.02 460.94, 803.79 460.01, 804.88 458.38 C 805.97 456.75, 806.60 455.84, 807.25 454.42 C 807.90 453.00, 808.01 452.31, 808.13 451.28 C 808.24 450.26, 808.22 449.89, 807.83 449.30 C 807.43 448.71, 806.86 448.39, 806.16 448.33"
       style="stroke:#000000;fill:#000000;stroke-opacity:1;stroke-width:4;stroke-dasharray:none"
       id="path16" />
    <path
       d="M 846.31,451.22 C 845.61 451.26, 845.41 451.50, 844.70 452.09 C 843.98 452.67, 843.54 453.03, 842.74 454.14 C 841.93 455.25, 841.48 456.12, 840.67 457.63 C 839.86 459.13, 839.43 460.09, 838.68 461.66 C 837.93 463.23, 837.49 464.10, 836.94 465.50 C 836.38 466.89, 836.16 467.58, 835.92 468.62 C 835.68 469.66, 835.63 470.04, 835.75 470.68 C 835.87 471.32, 836.23 471.57, 836.52 471.83 C 836.82 472.10, 837.08 472.01, 837.23 472.01 C 837.38 472.01, 837.16 471.84, 837.29 471.83 C 837.41 471.82, 837.55 472.00, 837.88 471.97 C 838.20 471.93, 838.50 471.98, 838.92 471.67 C 839.34 471.35, 839.43 471.13, 839.97 470.38 C 840.51 469.63, 840.84 469.08, 841.61 467.92 C 842.38 466.76, 842.89 465.99, 843.84 464.57 C 844.78 463.15, 845.45 462.32, 846.33 460.81 C 847.21 459.30, 847.75 458.41, 848.25 457.03 C 848.75 455.64, 848.85 454.92, 848.83 453.88 C 848.82 452.85, 848.70 452.38, 848.20 451.85 C 847.69 451.32, 847.01 451.17, 846.31 451.22"
       style="stroke:#000000;fill:#000000;stroke-opacity:1;stroke-width:4;stroke-dasharray:none"
       id="path17" />
    <path
       d="M 857.06,430.01 C 857.69 430.05, 857.77 429.94, 857.44 430.37 C 857.10 430.80, 855.87 431.87, 855.39 432.14 C 854.91 432.40, 854.72 432.48, 855.04 431.70 C 855.36 430.91, 856.77 429.07, 856.98 428.22 C 857.19 427.38, 856.70 427.22, 856.07 427.47 C 855.45 427.71, 854.23 428.91, 853.86 429.44 C 853.50 429.98, 853.62 430.04, 854.26 430.15 C 854.90 430.26, 856.42 429.96, 857.06 430.01"
       style="stroke:#000000;fill:#000000;stroke-opacity:1;stroke-width:4;stroke-dasharray:none"
       id="path18" />
    <path
       d="M 867.84,451.79 C 867.10 451.85, 866.82 452.18, 866.02 452.87 C 865.22 453.56, 864.75 454.02, 863.86 455.23 C 862.97 456.44, 862.49 457.38, 861.58 458.93 C 860.66 460.47, 860.18 461.40, 859.27 462.95 C 858.36 464.50, 857.72 465.31, 857.03 466.68 C 856.35 468.05, 855.92 468.72, 855.84 469.81 C 855.77 470.89, 856.02 471.50, 856.67 472.09 C 857.33 472.68, 858.01 472.94, 859.11 472.75 C 860.21 472.57, 860.85 472.18, 862.18 471.16 C 863.51 470.15, 864.15 469.23, 865.75 467.67 C 867.36 466.12, 868.26 465.04, 870.20 463.37 C 872.14 461.70, 873.33 460.79, 875.46 459.33 C 877.58 457.87, 878.84 457.15, 880.85 456.08 C 882.86 455.00, 883.91 454.55, 885.50 453.96 C 887.08 453.37, 887.79 453.25, 888.77 453.14 C 889.74 453.02, 890.04 453.07, 890.37 453.37 C 890.70 453.66, 890.59 453.87, 890.42 454.60 C 890.25 455.34, 890.00 455.86, 889.53 457.05 C 889.07 458.24, 888.74 459.04, 888.11 460.56 C 887.47 462.07, 886.95 462.99, 886.33 464.62 C 885.72 466.25, 885.30 467.20, 885.03 468.70 C 884.77 470.20, 884.63 471.28, 884.99 472.12 C 885.35 472.97, 885.98 473.23, 886.84 472.93 C 887.70 472.64, 888.34 471.81, 889.29 470.65 C 890.24 469.48, 890.73 468.66, 891.61 467.09 C 892.49 465.52, 893.02 464.57, 893.70 462.80 C 894.37 461.04, 894.79 460.03, 894.98 458.27 C 895.18 456.51, 895.16 455.51, 894.69 454.01 C 894.21 452.51, 893.75 451.74, 892.61 450.77 C 891.47 449.79, 890.68 449.43, 889.00 449.15 C 887.33 448.88, 886.32 448.96, 884.23 449.39 C 882.14 449.82, 880.93 450.28, 878.56 451.31 C 876.19 452.34, 874.81 453.07, 872.38 454.54 C 869.95 456.01, 868.64 456.97, 866.41 458.64 C 864.18 460.31, 862.99 461.27, 861.23 462.91 C 859.47 464.54, 858.58 465.39, 857.60 466.81 C 856.61 468.23, 856.37 469.00, 856.30 470.03 C 856.22 471.05, 856.63 471.58, 857.22 471.94 C 857.81 472.31, 858.40 472.32, 859.26 471.87 C 860.12 471.41, 860.53 470.79, 861.51 469.66 C 862.49 468.52, 863.07 467.67, 864.16 466.19 C 865.26 464.71, 865.98 463.85, 866.99 462.26 C 868.00 460.68, 868.58 459.74, 869.21 458.27 C 869.85 456.80, 870.05 456.05, 870.15 454.92 C 870.26 453.78, 870.21 453.20, 869.75 452.58 C 869.28 451.95, 868.59 451.73, 867.84 451.79"
       style="stroke:#000000;fill:#000000;stroke-opacity:1;stroke-width:4;stroke-dasharray:none"
       id="path19" />
    <path
       d="M 928.08,456.42 C 928.17 455.67, 927.96 455.19, 927.35 454.54 C 926.74 453.89, 926.20 453.53, 925.02 453.19 C 923.84 452.84, 922.98 452.74, 921.46 452.84 C 919.94 452.94, 919.08 453.18, 917.40 453.70 C 915.73 454.21, 914.78 454.57, 913.09 455.42 C 911.41 456.27, 910.46 456.84, 908.99 457.95 C 907.52 459.07, 906.75 459.73, 905.73 461.00 C 904.71 462.27, 904.23 462.98, 903.87 464.31 C 903.51 465.64, 903.50 466.45, 903.93 467.66 C 904.35 468.87, 904.86 469.57, 906.00 470.36 C 907.14 471.15, 907.99 471.43, 909.62 471.60 C 911.25 471.76, 912.26 471.59, 914.14 471.18 C 916.02 470.77, 917.09 470.34, 919.04 469.54 C 920.99 468.74, 922.07 468.20, 923.90 467.19 C 925.72 466.18, 926.67 465.56, 928.15 464.50 C 929.64 463.44, 930.37 462.87, 931.30 461.90 C 932.24 460.93, 932.65 460.45, 932.85 459.66 C 933.04 458.87, 932.82 458.34, 932.29 457.94 C 931.75 457.53, 931.01 457.33, 930.17 457.63 C 929.32 457.92, 928.79 458.35, 928.07 459.42 C 927.36 460.49, 927.13 461.34, 926.59 462.97 C 926.05 464.60, 925.86 465.65, 925.36 467.57 C 924.85 469.49, 924.60 470.55, 924.07 472.59 C 923.55 474.63, 923.31 475.72, 922.73 477.76 C 922.16 479.80, 921.88 480.84, 921.18 482.79 C 920.48 484.73, 920.12 485.70, 919.25 487.47 C 918.39 489.25, 917.91 490.12, 916.85 491.67 C 915.79 493.22, 915.21 493.95, 913.96 495.23 C 912.71 496.52, 912.02 497.10, 910.60 498.11 C 909.19 499.13, 908.40 499.57, 906.91 500.31 C 905.41 501.05, 904.62 501.36, 903.11 501.83 C 901.61 502.29, 900.82 502.43, 899.40 502.63 C 897.98 502.82, 897.23 502.83, 896.00 502.80 C 894.78 502.78, 894.25 502.64, 893.27 502.51 C 892.30 502.37, 891.91 502.18, 891.13 502.14 C 890.34 502.10, 889.87 501.99, 889.34 502.32 C 888.81 502.64, 888.46 503.11, 888.48 503.77 C 888.51 504.42, 888.76 504.91, 889.48 505.60 C 890.20 506.28, 890.84 506.74, 892.10 507.17 C 893.36 507.60, 894.21 507.65, 895.80 507.75 C 897.39 507.84, 898.28 507.85, 900.04 507.63 C 901.80 507.42, 902.77 507.23, 904.60 506.68 C 906.42 506.12, 907.37 505.76, 909.17 504.86 C 910.96 503.97, 911.89 503.44, 913.58 502.22 C 915.26 501.00, 916.09 500.28, 917.58 498.75 C 919.07 497.22, 919.78 496.36, 921.03 494.56 C 922.29 492.76, 922.85 491.76, 923.86 489.77 C 924.87 487.78, 925.29 486.71, 926.09 484.62 C 926.90 482.53, 927.22 481.42, 927.89 479.32 C 928.56 477.22, 928.83 476.13, 929.46 474.13 C 930.09 472.12, 930.40 471.11, 931.04 469.31 C 931.67 467.51, 932.08 466.60, 932.64 465.12 C 933.20 463.64, 933.62 463.04, 933.85 461.90 C 934.09 460.75, 934.09 460.25, 933.81 459.39 C 933.52 458.54, 933.08 458.06, 932.44 457.61 C 931.80 457.15, 931.41 457.01, 930.59 457.12 C 929.78 457.22, 929.43 457.54, 928.37 458.12 C 927.31 458.71, 926.70 459.24, 925.29 460.04 C 923.87 460.85, 922.99 461.36, 921.31 462.15 C 919.63 462.94, 918.62 463.37, 916.90 463.99 C 915.18 464.61, 914.21 464.86, 912.72 465.26 C 911.23 465.66, 910.48 465.74, 909.45 465.99 C 908.42 466.23, 908.05 466.35, 907.56 466.48 C 907.07 466.62, 907.00 466.74, 907.01 466.66 C 907.01 466.58, 907.12 466.49, 907.59 466.07 C 908.06 465.65, 908.43 465.27, 909.35 464.57 C 910.27 463.87, 910.92 463.36, 912.19 462.59 C 913.46 461.81, 914.29 461.35, 915.68 460.69 C 917.08 460.03, 917.92 459.69, 919.17 459.28 C 920.42 458.87, 920.99 458.75, 921.96 458.64 C 922.92 458.53, 923.28 458.72, 923.98 458.73 C 924.67 458.74, 924.85 458.80, 925.44 458.70 C 926.02 458.61, 926.36 458.70, 926.89 458.25 C 927.42 457.79, 927.99 457.16, 928.08 456.42"
       style="stroke:#000000;fill:#000000;stroke-opacity:1;stroke-width:4;stroke-dasharray:none"
       id="path20" />
    <path
       d="M 1026.44,428.51 C 1025.72 428.63, 1025.47 428.96, 1024.72 429.78 C 1023.97 430.60, 1023.54 431.10, 1022.68 432.62 C 1021.81 434.15, 1021.39 435.24, 1020.40 437.41 C 1019.41 439.58, 1018.89 440.90, 1017.74 443.49 C 1016.59 446.07, 1015.95 447.59, 1014.66 450.35 C 1013.36 453.11, 1012.57 454.60, 1011.27 457.29 C 1009.96 459.99, 1009.23 461.38, 1008.14 463.84 C 1007.05 466.31, 1006.56 467.56, 1005.82 469.62 C 1005.07 471.69, 1004.80 472.68, 1004.44 474.16 C 1004.07 475.65, 1004.00 476.17, 1003.98 477.07 C 1003.96 477.97, 1004.03 478.21, 1004.33 478.66 C 1004.62 479.11, 1004.88 479.18, 1005.45 479.31 C 1006.03 479.45, 1006.54 479.48, 1007.18 479.35 C 1007.83 479.22, 1008.68 478.96, 1008.67 478.65 C 1008.66 478.35, 1008.03 477.94, 1007.13 477.83 C 1006.24 477.71, 1005.06 478.01, 1004.18 478.08 C 1003.29 478.14, 1002.76 478.11, 1002.72 478.14 C 1002.68 478.18, 1003.43 478.10, 1003.98 478.24 C 1004.53 478.38, 1004.96 478.71, 1005.46 478.84 C 1005.96 478.98, 1006.10 479.10, 1006.47 478.93 C 1006.84 478.76, 1006.91 478.67, 1007.32 478.00 C 1007.74 477.34, 1007.94 476.90, 1008.54 475.59 C 1009.15 474.27, 1009.48 473.37, 1010.34 471.44 C 1011.20 469.52, 1011.75 468.36, 1012.86 465.98 C 1013.96 463.60, 1014.58 462.19, 1015.88 459.53 C 1017.17 456.87, 1017.92 455.38, 1019.34 452.69 C 1020.77 449.99, 1021.67 448.59, 1023.01 446.05 C 1024.36 443.52, 1025.05 442.22, 1026.07 440.00 C 1027.09 437.79, 1027.57 436.71, 1028.11 434.99 C 1028.66 433.27, 1028.76 432.57, 1028.80 431.41 C 1028.84 430.25, 1028.79 429.75, 1028.32 429.18 C 1027.84 428.60, 1027.15 428.39, 1026.44 428.51"
       style="stroke:#000000;fill:#000000;stroke-opacity:1;stroke-width:4;stroke-dasharray:none"
       id="path21" />
    <path
       d="M 1023.70,430.84 C 1023.53 431.45, 1023.72 431.54, 1023.75 432.01 C 1023.78 432.48, 1023.68 432.54, 1023.88 433.19 C 1024.07 433.83, 1024.28 434.26, 1024.70 435.24 C 1025.12 436.21, 1025.44 436.82, 1025.99 438.04 C 1026.53 439.26, 1026.79 440.01, 1027.43 441.35 C 1028.07 442.68, 1028.34 443.44, 1029.16 444.72 C 1029.98 446.00, 1030.41 446.68, 1031.52 447.76 C 1032.64 448.83, 1033.26 449.38, 1034.72 450.09 C 1036.18 450.79, 1037.04 451.09, 1038.83 451.30 C 1040.61 451.51, 1041.61 451.49, 1043.64 451.15 C 1045.68 450.82, 1046.78 450.47, 1049.00 449.62 C 1051.22 448.78, 1052.42 448.18, 1054.74 446.93 C 1057.05 445.69, 1058.32 444.89, 1060.57 443.38 C 1062.82 441.86, 1064.02 440.92, 1065.98 439.35 C 1067.93 437.78, 1068.88 436.91, 1070.33 435.52 C 1071.78 434.13, 1072.53 433.51, 1073.23 432.40 C 1073.92 431.30, 1074.05 430.69, 1073.81 430.00 C 1073.58 429.30, 1073.00 428.83, 1072.06 428.93 C 1071.11 429.04, 1070.36 429.31, 1069.09 430.52 C 1067.82 431.73, 1067.08 432.78, 1065.71 435.00 C 1064.34 437.23, 1063.76 438.83, 1062.22 441.63 C 1060.68 444.43, 1059.72 446.07, 1058.02 449.00 C 1056.32 451.94, 1055.32 453.51, 1053.71 456.28 C 1052.09 459.06, 1051.17 460.40, 1049.94 462.90 C 1048.71 465.39, 1048.21 466.64, 1047.57 468.77 C 1046.93 470.90, 1046.73 471.87, 1046.74 473.56 C 1046.75 475.26, 1046.95 476.01, 1047.64 477.23 C 1048.34 478.45, 1048.93 478.97, 1050.22 479.67 C 1051.50 480.36, 1052.40 480.64, 1054.07 480.69 C 1055.74 480.75, 1056.91 480.53, 1058.56 479.96 C 1060.21 479.40, 1061.14 478.84, 1062.32 477.88 C 1063.51 476.93, 1064.23 476.12, 1064.49 475.21 C 1064.76 474.29, 1064.46 473.72, 1063.63 473.30 C 1062.81 472.87, 1061.77 472.97, 1060.36 473.08 C 1058.95 473.18, 1058.00 473.41, 1056.59 473.83 C 1055.18 474.25, 1054.35 474.75, 1053.31 475.19 C 1052.26 475.62, 1051.93 475.89, 1051.38 476.00 C 1050.82 476.12, 1050.68 476.16, 1050.54 475.75 C 1050.40 475.33, 1050.40 475.01, 1050.67 473.93 C 1050.94 472.84, 1051.15 472.08, 1051.90 470.32 C 1052.65 468.56, 1053.24 467.48, 1054.43 465.15 C 1055.62 462.82, 1056.31 461.39, 1057.85 458.66 C 1059.40 455.94, 1060.35 454.34, 1062.15 451.52 C 1063.96 448.70, 1065.02 447.13, 1066.87 444.56 C 1068.72 441.99, 1069.97 440.83, 1071.41 438.68 C 1072.86 436.53, 1073.50 435.45, 1074.11 433.80 C 1074.71 432.14, 1074.68 431.42, 1074.43 430.41 C 1074.18 429.40, 1073.67 428.99, 1072.85 428.75 C 1072.03 428.51, 1071.48 428.63, 1070.32 429.22 C 1069.16 429.80, 1068.58 430.52, 1067.05 431.69 C 1065.52 432.85, 1064.60 433.64, 1062.68 435.04 C 1060.76 436.43, 1059.58 437.27, 1057.45 438.64 C 1055.31 440.01, 1054.12 440.75, 1052.01 441.90 C 1049.90 443.04, 1048.80 443.58, 1046.91 444.36 C 1045.03 445.15, 1044.12 445.45, 1042.58 445.82 C 1041.04 446.20, 1040.38 446.26, 1039.21 446.25 C 1038.04 446.24, 1037.57 446.14, 1036.73 445.77 C 1035.88 445.41, 1035.60 445.14, 1034.98 444.42 C 1034.37 443.70, 1034.14 443.22, 1033.66 442.19 C 1033.17 441.16, 1032.98 440.52, 1032.57 439.27 C 1032.16 438.01, 1032.02 437.26, 1031.60 435.92 C 1031.18 434.58, 1031.05 433.78, 1030.46 432.56 C 1029.86 431.34, 1029.45 430.61, 1028.63 429.83 C 1027.80 429.04, 1027.15 428.80, 1026.35 428.63 C 1025.54 428.45, 1025.13 428.51, 1024.60 428.95 C 1024.07 429.39, 1023.87 430.23, 1023.70 430.84"
       style="stroke:#000000;fill:#000000;stroke-opacity:1;stroke-width:4;stroke-dasharray:none"
       id="path22" />
    <path
       d="M 1100.65,456.29 C 1100.84 455.58, 1100.74 455.07, 1100.25 454.40 C 1099.75 453.72, 1099.25 453.30, 1098.16 452.90 C 1097.08 452.49, 1096.28 452.35, 1094.82 452.38 C 1093.36 452.41, 1092.56 452.58, 1090.88 453.05 C 1089.19 453.53, 1088.27 453.84, 1086.40 454.74 C 1084.53 455.63, 1083.45 456.22, 1081.54 457.53 C 1079.63 458.84, 1078.56 459.68, 1076.85 461.27 C 1075.13 462.86, 1074.25 463.79, 1072.96 465.49 C 1071.67 467.19, 1071.06 468.11, 1070.39 469.78 C 1069.71 471.44, 1069.51 472.32, 1069.58 473.82 C 1069.64 475.33, 1069.91 476.14, 1070.72 477.31 C 1071.53 478.48, 1072.20 479.06, 1073.61 479.69 C 1075.02 480.32, 1075.96 480.48, 1077.77 480.45 C 1079.58 480.42, 1080.63 480.17, 1082.66 479.53 C 1084.68 478.89, 1085.76 478.37, 1087.88 477.27 C 1089.99 476.16, 1091.15 475.47, 1093.24 474.02 C 1095.33 472.57, 1096.43 471.66, 1098.32 470.03 C 1100.21 468.40, 1101.24 467.50, 1102.68 465.88 C 1104.12 464.25, 1104.97 463.30, 1105.51 461.91 C 1106.05 460.52, 1105.91 459.65, 1105.39 458.93 C 1104.86 458.20, 1104.07 458.01, 1102.87 458.28 C 1101.67 458.55, 1100.70 459.04, 1099.40 460.27 C 1098.10 461.50, 1097.36 462.64, 1096.36 464.44 C 1095.35 466.23, 1094.99 467.44, 1094.38 469.25 C 1093.77 471.06, 1093.48 471.92, 1093.32 473.48 C 1093.15 475.04, 1093.15 475.78, 1093.56 477.06 C 1093.98 478.33, 1094.38 478.97, 1095.38 479.87 C 1096.39 480.77, 1097.15 481.21, 1098.58 481.55 C 1100.02 481.88, 1101.08 481.87, 1102.55 481.56 C 1104.01 481.25, 1104.88 480.82, 1105.93 480.01 C 1106.98 479.19, 1107.59 478.39, 1107.79 477.49 C 1107.99 476.59, 1107.66 475.99, 1106.92 475.50 C 1106.19 475.01, 1105.27 475.04, 1104.12 475.02 C 1102.96 475.01, 1102.24 475.16, 1101.16 475.43 C 1100.08 475.70, 1099.47 476.09, 1098.73 476.36 C 1098.00 476.64, 1097.82 476.82, 1097.50 476.81 C 1097.17 476.79, 1097.08 476.72, 1097.12 476.28 C 1097.16 475.84, 1097.22 475.50, 1097.68 474.59 C 1098.15 473.68, 1098.53 473.03, 1099.44 471.74 C 1100.36 470.45, 1101.20 469.65, 1102.27 468.13 C 1103.34 466.62, 1104.12 465.67, 1104.80 464.15 C 1105.47 462.64, 1105.68 461.68, 1105.63 460.57 C 1105.58 459.46, 1105.26 458.88, 1104.56 458.59 C 1103.85 458.30, 1103.24 458.43, 1102.09 459.13 C 1100.94 459.82, 1100.27 460.72, 1098.79 462.06 C 1097.32 463.39, 1096.48 464.35, 1094.73 465.80 C 1092.98 467.26, 1091.95 468.06, 1090.05 469.33 C 1088.15 470.60, 1087.08 471.20, 1085.24 472.14 C 1083.39 473.08, 1082.43 473.46, 1080.83 474.02 C 1079.23 474.59, 1078.44 474.71, 1077.25 474.96 C 1076.05 475.22, 1075.57 475.27, 1074.85 475.30 C 1074.13 475.32, 1073.93 475.34, 1073.65 475.09 C 1073.37 474.83, 1073.28 474.66, 1073.46 474.02 C 1073.64 473.39, 1073.83 472.94, 1074.53 471.91 C 1075.24 470.88, 1075.79 470.16, 1077.00 468.88 C 1078.21 467.60, 1079.02 466.80, 1080.58 465.51 C 1082.15 464.22, 1083.12 463.51, 1084.81 462.41 C 1086.49 461.31, 1087.45 460.79, 1088.99 460.00 C 1090.54 459.22, 1091.33 458.90, 1092.53 458.49 C 1093.74 458.08, 1094.21 458.02, 1095.03 457.96 C 1095.84 457.91, 1096.04 458.14, 1096.61 458.22 C 1097.17 458.30, 1097.30 458.40, 1097.83 458.35 C 1098.36 458.30, 1098.70 458.38, 1099.26 457.97 C 1099.82 457.55, 1100.45 457.00, 1100.65 456.29"
       style="stroke:#000000;fill:#000000;stroke-opacity:1;stroke-width:4;stroke-dasharray:none"
       id="path23" />
    <path
       d="M 1125.21,457.56 C 1124.48 457.61, 1124.20 457.89, 1123.40 458.56 C 1122.61 459.22, 1122.12 459.68, 1121.22 460.89 C 1120.33 462.10, 1119.82 463.04, 1118.92 464.60 C 1118.03 466.16, 1117.57 467.15, 1116.75 468.69 C 1115.93 470.23, 1115.35 471.00, 1114.81 472.30 C 1114.28 473.59, 1113.98 474.22, 1114.07 475.17 C 1114.15 476.11, 1114.52 476.62, 1115.24 477.01 C 1115.96 477.41, 1116.63 477.52, 1117.65 477.16 C 1118.67 476.79, 1119.21 476.32, 1120.33 475.19 C 1121.45 474.05, 1121.93 473.09, 1123.26 471.48 C 1124.58 469.87, 1125.32 468.83, 1126.96 467.16 C 1128.59 465.48, 1129.60 464.58, 1131.42 463.10 C 1133.25 461.62, 1134.34 460.88, 1136.08 459.75 C 1137.83 458.63, 1138.75 458.14, 1140.14 457.47 C 1141.54 456.80, 1142.19 456.62, 1143.08 456.41 C 1143.97 456.21, 1144.24 456.23, 1144.59 456.45 C 1144.94 456.68, 1144.89 456.86, 1144.84 457.53 C 1144.79 458.21, 1144.63 458.67, 1144.34 459.82 C 1144.05 460.97, 1143.83 461.77, 1143.37 463.29 C 1142.92 464.82, 1142.62 465.76, 1142.07 467.42 C 1141.52 469.09, 1141.09 470.03, 1140.62 471.61 C 1140.15 473.19, 1139.88 474.07, 1139.73 475.33 C 1139.59 476.59, 1139.71 477.12, 1139.89 477.92 C 1140.08 478.73, 1140.24 479.05, 1140.65 479.36 C 1141.06 479.67, 1141.48 479.63, 1141.92 479.47 C 1142.37 479.31, 1142.42 479.10, 1142.89 478.56 C 1143.36 478.02, 1143.69 477.79, 1144.27 476.78 C 1144.85 475.77, 1145.13 474.98, 1145.79 473.51 C 1146.44 472.03, 1146.87 471.13, 1147.54 469.40 C 1148.22 467.68, 1148.69 466.70, 1149.16 464.88 C 1149.62 463.06, 1149.89 462.02, 1149.85 460.30 C 1149.81 458.58, 1149.61 457.64, 1148.94 456.28 C 1148.27 454.92, 1147.71 454.27, 1146.50 453.49 C 1145.29 452.71, 1144.50 452.46, 1142.90 452.37 C 1141.29 452.28, 1140.37 452.46, 1138.47 453.02 C 1136.58 453.59, 1135.52 454.09, 1133.43 455.21 C 1131.33 456.33, 1130.13 457.09, 1128.01 458.62 C 1125.89 460.14, 1124.76 461.11, 1122.83 462.83 C 1120.90 464.56, 1119.90 465.55, 1118.37 467.24 C 1116.84 468.92, 1116.02 469.79, 1115.16 471.26 C 1114.31 472.73, 1114.10 473.50, 1114.07 474.58 C 1114.05 475.66, 1114.45 476.21, 1115.04 476.68 C 1115.63 477.16, 1116.19 477.26, 1117.03 476.95 C 1117.87 476.64, 1118.30 476.14, 1119.24 475.11 C 1120.18 474.09, 1120.69 473.25, 1121.73 471.82 C 1122.78 470.38, 1123.48 469.51, 1124.47 467.94 C 1125.46 466.37, 1126.07 465.42, 1126.68 463.95 C 1127.29 462.48, 1127.45 461.70, 1127.52 460.57 C 1127.60 459.45, 1127.53 458.94, 1127.07 458.34 C 1126.60 457.74, 1125.94 457.52, 1125.21 457.56"
       style="stroke:#000000;fill:#000000;stroke-opacity:1;stroke-width:4;stroke-dasharray:none"
       id="path24" />
    <path
       d="M 1183.60,458.67 C 1183.64 457.92, 1183.42 457.43, 1182.74 456.79 C 1182.07 456.16, 1181.47 455.78, 1180.22 455.48 C 1178.97 455.19, 1178.08 455.13, 1176.48 455.31 C 1174.88 455.50, 1174.01 455.76, 1172.23 456.39 C 1170.45 457.02, 1169.44 457.43, 1167.59 458.45 C 1165.73 459.48, 1164.68 460.15, 1162.94 461.51 C 1161.21 462.87, 1160.29 463.69, 1158.92 465.24 C 1157.56 466.78, 1156.89 467.64, 1156.10 469.24 C 1155.32 470.83, 1155.03 471.71, 1155.00 473.22 C 1154.97 474.74, 1155.19 475.59, 1155.94 476.82 C 1156.69 478.05, 1157.36 478.68, 1158.74 479.38 C 1160.12 480.09, 1161.04 480.29, 1162.83 480.36 C 1164.63 480.43, 1165.69 480.24, 1167.70 479.74 C 1169.71 479.25, 1170.81 478.81, 1172.89 477.88 C 1174.98 476.94, 1176.10 476.31, 1178.12 475.06 C 1180.13 473.82, 1181.22 473.06, 1182.98 471.64 C 1184.74 470.21, 1185.61 469.37, 1186.92 467.96 C 1188.23 466.54, 1188.97 465.85, 1189.54 464.57 C 1190.11 463.29, 1190.17 462.44, 1189.77 461.55 C 1189.36 460.67, 1188.62 460.21, 1187.52 460.14 C 1186.42 460.07, 1185.50 460.34, 1184.26 461.20 C 1183.02 462.07, 1182.31 462.93, 1181.32 464.46 C 1180.33 465.98, 1179.97 467.13, 1179.31 468.84 C 1178.65 470.55, 1178.31 471.47, 1178.01 473.02 C 1177.70 474.56, 1177.64 475.35, 1177.79 476.57 C 1177.93 477.78, 1178.26 478.39, 1178.75 479.08 C 1179.25 479.77, 1179.70 479.99, 1180.27 480.01 C 1180.85 480.04, 1181.31 479.61, 1181.63 479.21 C 1181.95 478.81, 1181.80 478.52, 1181.88 478.01 C 1181.97 477.49, 1181.87 477.31, 1182.05 476.62 C 1182.22 475.93, 1182.23 475.54, 1182.75 474.54 C 1183.26 473.55, 1183.71 472.89, 1184.61 471.67 C 1185.52 470.44, 1186.36 469.73, 1187.26 468.41 C 1188.17 467.08, 1188.72 466.29, 1189.14 465.06 C 1189.56 463.83, 1189.59 463.08, 1189.36 462.25 C 1189.13 461.42, 1188.68 461.00, 1187.99 460.91 C 1187.30 460.81, 1186.84 461.09, 1185.90 461.76 C 1184.96 462.43, 1184.55 463.16, 1183.29 464.27 C 1182.04 465.39, 1181.26 466.13, 1179.64 467.33 C 1178.03 468.52, 1177.02 469.18, 1175.21 470.24 C 1173.40 471.30, 1172.37 471.84, 1170.57 472.62 C 1168.78 473.39, 1167.82 473.67, 1166.23 474.11 C 1164.64 474.56, 1163.82 474.65, 1162.62 474.84 C 1161.43 475.02, 1160.97 475.07, 1160.25 475.04 C 1159.54 475.02, 1159.30 474.99, 1159.04 474.72 C 1158.77 474.45, 1158.68 474.30, 1158.91 473.70 C 1159.13 473.11, 1159.40 472.68, 1160.17 471.74 C 1160.95 470.80, 1161.54 470.13, 1162.78 469.01 C 1164.03 467.88, 1164.86 467.19, 1166.39 466.10 C 1167.91 465.01, 1168.85 464.43, 1170.41 463.57 C 1171.97 462.71, 1172.84 462.32, 1174.19 461.81 C 1175.55 461.29, 1176.15 461.16, 1177.19 461.02 C 1178.22 460.87, 1178.60 461.07, 1179.36 461.08 C 1180.12 461.09, 1180.37 461.19, 1181.00 461.09 C 1181.64 460.98, 1182.02 461.03, 1182.54 460.55 C 1183.06 460.07, 1183.55 459.42, 1183.60 458.67"
       style="stroke:#000000;fill:#000000;stroke-opacity:1;stroke-width:4;stroke-dasharray:none"
       id="path25" />
    <path
       d="M 1226.10,464.13 C 1226.49 463.50, 1226.53 462.95, 1226.20 462.17 C 1225.87 461.39, 1225.45 460.84, 1224.47 460.21 C 1223.48 459.58, 1222.72 459.25, 1221.27 459.01 C 1219.82 458.77, 1218.97 458.80, 1217.23 459.01 C 1215.50 459.23, 1214.50 459.44, 1212.60 460.09 C 1210.71 460.75, 1209.59 461.24, 1207.75 462.29 C 1205.91 463.34, 1204.90 464.05, 1203.40 465.36 C 1201.89 466.67, 1201.12 467.41, 1200.22 468.84 C 1199.31 470.27, 1198.97 471.09, 1198.88 472.49 C 1198.78 473.90, 1198.99 474.74, 1199.76 475.87 C 1200.53 476.99, 1201.25 477.58, 1202.71 478.13 C 1204.16 478.68, 1205.17 478.75, 1207.04 478.62 C 1208.91 478.48, 1210.01 478.12, 1212.06 477.45 C 1214.12 476.78, 1215.28 476.24, 1217.31 475.25 C 1219.35 474.26, 1220.45 473.61, 1222.23 472.50 C 1224.01 471.39, 1224.92 470.75, 1226.22 469.69 C 1227.51 468.64, 1228.16 468.14, 1228.69 467.22 C 1229.22 466.30, 1229.23 465.64, 1228.86 465.09 C 1228.50 464.54, 1227.77 464.21, 1226.86 464.47 C 1225.95 464.72, 1225.26 465.19, 1224.30 466.37 C 1223.34 467.56, 1222.93 468.53, 1222.07 470.40 C 1221.20 472.27, 1220.82 473.51, 1219.95 475.73 C 1219.09 477.95, 1218.65 479.21, 1217.75 481.50 C 1216.86 483.78, 1216.43 484.96, 1215.47 487.14 C 1214.51 489.32, 1214.00 490.42, 1212.95 492.40 C 1211.90 494.38, 1211.34 495.35, 1210.21 497.03 C 1209.08 498.71, 1208.50 499.49, 1207.30 500.81 C 1206.09 502.12, 1205.45 502.69, 1204.19 503.63 C 1202.92 504.57, 1202.23 504.94, 1200.97 505.51 C 1199.71 506.08, 1199.08 506.27, 1197.88 506.48 C 1196.67 506.69, 1196.06 506.67, 1194.95 506.56 C 1193.84 506.46, 1193.27 506.30, 1192.34 505.96 C 1191.40 505.61, 1190.95 505.35, 1190.28 504.84 C 1189.61 504.32, 1189.36 504.01, 1188.98 503.39 C 1188.60 502.78, 1188.65 502.32, 1188.38 501.75 C 1188.12 501.19, 1187.96 501.00, 1187.66 500.57 C 1187.35 500.13, 1187.34 499.82, 1186.85 499.57 C 1186.37 499.31, 1185.81 499.08, 1185.25 499.28 C 1184.68 499.47, 1184.35 499.81, 1184.03 500.54 C 1183.72 501.27, 1183.53 501.81, 1183.67 502.90 C 1183.81 504.00, 1184.02 504.85, 1184.74 506.01 C 1185.46 507.17, 1186.10 507.81, 1187.28 508.72 C 1188.45 509.64, 1189.16 510.04, 1190.61 510.58 C 1192.06 511.13, 1192.92 511.32, 1194.54 511.44 C 1196.16 511.57, 1197.05 511.52, 1198.72 511.21 C 1200.40 510.91, 1201.27 510.65, 1202.93 509.92 C 1204.60 509.19, 1205.47 508.70, 1207.06 507.55 C 1208.65 506.39, 1209.42 505.68, 1210.88 504.15 C 1212.33 502.62, 1213.02 501.75, 1214.34 499.89 C 1215.66 498.04, 1216.29 496.99, 1217.48 494.88 C 1218.67 492.78, 1219.20 491.61, 1220.29 489.37 C 1221.37 487.13, 1221.86 485.94, 1222.90 483.69 C 1223.93 481.44, 1224.43 480.22, 1225.45 478.12 C 1226.47 476.03, 1227.11 475.00, 1227.98 473.23 C 1228.86 471.45, 1229.39 470.69, 1229.80 469.26 C 1230.21 467.83, 1230.30 467.13, 1230.04 466.10 C 1229.79 465.07, 1229.30 464.53, 1228.54 464.12 C 1227.77 463.70, 1227.26 463.73, 1226.23 464.01 C 1225.19 464.29, 1224.72 464.76, 1223.37 465.50 C 1222.02 466.24, 1221.18 466.81, 1219.48 467.70 C 1217.78 468.58, 1216.73 469.12, 1214.87 469.92 C 1213.01 470.71, 1211.91 471.10, 1210.17 471.67 C 1208.43 472.24, 1207.50 472.42, 1206.16 472.77 C 1204.82 473.12, 1204.24 473.22, 1203.46 473.42 C 1202.67 473.61, 1202.46 473.76, 1202.25 473.74 C 1202.04 473.73, 1202.08 473.72, 1202.42 473.35 C 1202.76 472.98, 1203.06 472.64, 1203.94 471.91 C 1204.81 471.18, 1205.46 470.60, 1206.78 469.71 C 1208.11 468.82, 1209.00 468.24, 1210.56 467.44 C 1212.12 466.64, 1213.07 466.24, 1214.58 465.70 C 1216.08 465.16, 1216.91 464.96, 1218.10 464.74 C 1219.29 464.51, 1219.76 464.52, 1220.52 464.58 C 1221.29 464.64, 1221.44 464.87, 1221.91 465.02 C 1222.37 465.16, 1222.40 465.24, 1222.87 465.30 C 1223.33 465.36, 1223.59 465.55, 1224.23 465.32 C 1224.88 465.09, 1225.71 464.76, 1226.10 464.13"
       style="stroke:#000000;fill:#000000;stroke-opacity:1;stroke-width:4;stroke-dasharray:none"
       id="path26" />
    <path
       d="M 1243.21,474.19 C 1243.52 474.80, 1243.82 475.01, 1244.62 475.28 C 1245.43 475.55, 1245.99 475.67, 1247.23 475.54 C 1248.47 475.42, 1249.26 475.17, 1250.82 474.64 C 1252.38 474.11, 1253.30 473.67, 1255.02 472.89 C 1256.74 472.11, 1257.71 471.63, 1259.40 470.74 C 1261.09 469.85, 1261.99 469.37, 1263.46 468.43 C 1264.93 467.48, 1265.70 467.06, 1266.75 466.01 C 1267.79 464.96, 1268.29 464.39, 1268.68 463.18 C 1269.06 461.97, 1269.12 461.16, 1268.65 459.97 C 1268.19 458.79, 1267.69 458.02, 1266.37 457.25 C 1265.05 456.47, 1264.06 456.19, 1262.06 456.10 C 1260.07 456.00, 1258.82 456.20, 1256.38 456.76 C 1253.95 457.32, 1252.50 457.81, 1249.88 458.89 C 1247.27 459.96, 1245.76 460.69, 1243.29 462.14 C 1240.83 463.58, 1239.54 464.44, 1237.55 466.09 C 1235.57 467.75, 1234.64 468.64, 1233.38 470.40 C 1232.13 472.16, 1231.65 473.11, 1231.28 474.89 C 1230.91 476.68, 1230.96 477.66, 1231.53 479.33 C 1232.11 480.99, 1232.69 481.92, 1234.15 483.22 C 1235.60 484.53, 1236.65 485.09, 1238.81 485.88 C 1240.97 486.66, 1242.31 486.88, 1244.95 487.16 C 1247.59 487.44, 1249.12 487.42, 1252.03 487.26 C 1254.95 487.11, 1256.56 486.84, 1259.52 486.38 C 1262.48 485.92, 1264.26 485.67, 1266.83 484.97 C 1269.40 484.27, 1270.64 483.73, 1272.38 482.86 C 1274.12 481.99, 1275.01 481.39, 1275.54 480.62 C 1276.07 479.85, 1275.88 479.35, 1275.03 479.02 C 1274.19 478.69, 1273.19 478.84, 1271.32 478.96 C 1269.45 479.07, 1268.20 479.20, 1265.68 479.59 C 1263.15 479.98, 1261.49 480.52, 1258.71 480.91 C 1255.93 481.30, 1254.41 481.45, 1251.77 481.55 C 1249.12 481.65, 1247.76 481.62, 1245.50 481.42 C 1243.24 481.23, 1242.15 481.00, 1240.45 480.59 C 1238.76 480.18, 1238.06 479.92, 1237.02 479.37 C 1235.97 478.81, 1235.60 478.53, 1235.22 477.83 C 1234.83 477.14, 1234.75 476.81, 1235.10 475.91 C 1235.44 475.01, 1235.81 474.46, 1236.94 473.33 C 1238.06 472.20, 1238.90 471.50, 1240.72 470.26 C 1242.54 469.03, 1243.77 468.31, 1246.04 467.15 C 1248.31 466.00, 1249.74 465.37, 1252.09 464.49 C 1254.44 463.61, 1255.77 463.25, 1257.80 462.75 C 1259.83 462.25, 1260.82 462.22, 1262.25 462.01 C 1263.69 461.80, 1264.22 461.84, 1264.96 461.71 C 1265.71 461.59, 1265.86 461.44, 1265.98 461.37 C 1266.11 461.31, 1266.01 461.21, 1265.59 461.38 C 1265.17 461.56, 1264.81 461.77, 1263.86 462.26 C 1262.91 462.74, 1262.23 463.13, 1260.85 463.80 C 1259.46 464.47, 1258.57 464.89, 1256.94 465.59 C 1255.31 466.28, 1254.34 466.67, 1252.70 467.28 C 1251.06 467.89, 1250.15 468.14, 1248.74 468.64 C 1247.33 469.14, 1246.63 469.30, 1245.66 469.77 C 1244.69 470.24, 1244.41 470.50, 1243.89 471.00 C 1243.37 471.49, 1243.19 471.62, 1243.05 472.26 C 1242.92 472.90, 1242.89 473.59, 1243.21 474.19"
       style="stroke:#000000;fill:#000000;stroke-opacity:1;stroke-width:4;stroke-dasharray:none"
       id="path27" />
    <path
       d="M 1294.41,462.25 C 1293.72 462.28, 1293.53 462.49, 1292.84 463.03 C 1292.14 463.58, 1291.71 463.92, 1290.92 465.00 C 1290.13 466.07, 1289.71 466.92, 1288.88 468.40 C 1288.06 469.88, 1287.63 470.83, 1286.79 472.39 C 1285.96 473.95, 1285.41 474.80, 1284.70 476.19 C 1283.99 477.57, 1283.47 478.21, 1283.25 479.31 C 1283.02 480.41, 1283.10 481.00, 1283.57 481.69 C 1284.04 482.38, 1284.66 482.74, 1285.59 482.76 C 1286.53 482.78, 1287.19 482.58, 1288.24 481.78 C 1289.30 480.98, 1289.72 480.20, 1290.87 478.76 C 1292.02 477.31, 1292.54 476.27, 1294.00 474.56 C 1295.45 472.86, 1296.44 471.90, 1298.16 470.23 C 1299.87 468.56, 1300.88 467.62, 1302.57 466.21 C 1304.25 464.81, 1305.17 464.16, 1306.58 463.20 C 1307.99 462.23, 1308.72 461.90, 1309.61 461.41 C 1310.50 460.92, 1310.75 460.76, 1311.04 460.75 C 1311.33 460.75, 1311.19 460.88, 1311.04 461.38 C 1310.89 461.89, 1310.65 462.30, 1310.28 463.28 C 1309.92 464.27, 1309.71 464.98, 1309.21 466.32 C 1308.70 467.67, 1308.36 468.55, 1307.77 470.01 C 1307.17 471.47, 1306.71 472.30, 1306.24 473.64 C 1305.77 474.98, 1305.40 475.61, 1305.42 476.70 C 1305.45 477.79, 1305.68 478.44, 1306.37 479.09 C 1307.06 479.75, 1307.73 480.06, 1308.88 479.98 C 1310.02 479.90, 1310.69 479.59, 1312.08 478.68 C 1313.46 477.77, 1314.16 476.89, 1315.79 475.43 C 1317.42 473.98, 1318.34 472.94, 1320.24 471.39 C 1322.13 469.84, 1323.30 469.00, 1325.28 467.69 C 1327.25 466.38, 1328.39 465.74, 1330.10 464.84 C 1331.82 463.93, 1332.68 463.62, 1333.85 463.17 C 1335.03 462.72, 1335.48 462.63, 1335.98 462.59 C 1336.48 462.56, 1336.45 462.58, 1336.36 462.99 C 1336.26 463.40, 1335.96 463.70, 1335.49 464.64 C 1335.03 465.57, 1334.68 466.26, 1334.02 467.67 C 1333.36 469.09, 1332.95 470.04, 1332.18 471.71 C 1331.42 473.38, 1330.88 474.35, 1330.18 476.00 C 1329.48 477.65, 1329.06 478.55, 1328.70 479.96 C 1328.34 481.36, 1328.32 482.04, 1328.37 483.02 C 1328.42 484.00, 1328.57 484.44, 1328.96 484.87 C 1329.35 485.30, 1329.79 485.34, 1330.32 485.18 C 1330.84 485.02, 1330.99 484.72, 1331.58 484.07 C 1332.17 483.42, 1332.52 483.04, 1333.25 481.93 C 1333.98 480.82, 1334.36 480.03, 1335.23 478.51 C 1336.10 477.00, 1336.73 476.10, 1337.62 474.38 C 1338.52 472.65, 1339.12 471.67, 1339.71 469.90 C 1340.29 468.13, 1340.58 467.14, 1340.55 465.51 C 1340.53 463.88, 1340.32 462.97, 1339.59 461.74 C 1338.87 460.52, 1338.25 459.96, 1336.93 459.39 C 1335.61 458.81, 1334.76 458.72, 1332.98 458.87 C 1331.20 459.02, 1330.15 459.34, 1328.02 460.14 C 1325.90 460.93, 1324.64 461.57, 1322.34 462.84 C 1320.05 464.11, 1318.75 464.96, 1316.55 466.48 C 1314.36 467.99, 1313.14 468.90, 1311.38 470.43 C 1309.62 471.95, 1308.75 472.79, 1307.77 474.11 C 1306.79 475.44, 1306.56 476.12, 1306.47 477.05 C 1306.38 477.97, 1306.78 478.45, 1307.33 478.73 C 1307.89 479.01, 1308.46 478.98, 1309.23 478.45 C 1310.00 477.93, 1310.39 477.31, 1311.19 476.11 C 1311.99 474.91, 1312.45 474.01, 1313.22 472.44 C 1313.98 470.87, 1314.50 469.94, 1315.00 468.24 C 1315.51 466.54, 1315.79 465.56, 1315.74 463.94 C 1315.69 462.32, 1315.47 461.38, 1314.73 460.15 C 1314.00 458.92, 1313.33 458.34, 1312.08 457.79 C 1310.82 457.25, 1310.07 457.21, 1308.48 457.43 C 1306.89 457.65, 1305.97 458.00, 1304.13 458.89 C 1302.28 459.78, 1301.24 460.49, 1299.25 461.89 C 1297.27 463.30, 1296.18 464.22, 1294.22 465.91 C 1292.25 467.60, 1291.19 468.60, 1289.45 470.34 C 1287.71 472.08, 1286.74 473.00, 1285.52 474.60 C 1284.30 476.21, 1283.78 477.05, 1283.35 478.36 C 1282.93 479.68, 1283.04 480.35, 1283.39 481.18 C 1283.75 482.01, 1284.36 482.39, 1285.13 482.50 C 1285.90 482.61, 1286.41 482.40, 1287.25 481.72 C 1288.09 481.04, 1288.41 480.34, 1289.34 479.10 C 1290.28 477.86, 1290.90 477.03, 1291.93 475.53 C 1292.97 474.03, 1293.62 473.14, 1294.51 471.61 C 1295.40 470.07, 1295.90 469.22, 1296.39 467.86 C 1296.87 466.51, 1296.95 465.82, 1296.93 464.82 C 1296.91 463.83, 1296.78 463.39, 1296.27 462.88 C 1295.77 462.36, 1295.10 462.22, 1294.41 462.25"
       style="stroke:#000000;fill:#000000;stroke-opacity:1;stroke-width:4;stroke-dasharray:none"
       id="path28" />
    <path
       d="M 1351.46,476.90 C 1351.81 477.55, 1352.22 477.83, 1353.22 478.15 C 1354.22 478.47, 1354.94 478.58, 1356.44 478.48 C 1357.95 478.38, 1358.94 478.15, 1360.76 477.65 C 1362.57 477.16, 1363.62 476.73, 1365.53 476.00 C 1367.44 475.28, 1368.50 474.85, 1370.32 474.03 C 1372.14 473.21, 1373.09 472.78, 1374.61 471.89 C 1376.14 471.01, 1376.91 470.60, 1377.95 469.61 C 1379.00 468.61, 1379.48 468.07, 1379.86 466.91 C 1380.24 465.75, 1380.30 464.96, 1379.85 463.81 C 1379.41 462.65, 1378.92 461.89, 1377.64 461.12 C 1376.36 460.35, 1375.39 460.08, 1373.44 459.96 C 1371.49 459.83, 1370.28 460.01, 1367.89 460.51 C 1365.50 461.01, 1364.07 461.44, 1361.48 462.45 C 1358.90 463.47, 1357.41 464.17, 1354.98 465.57 C 1352.56 466.97, 1351.30 467.82, 1349.35 469.45 C 1347.39 471.07, 1346.45 471.92, 1345.22 473.68 C 1343.99 475.44, 1343.51 476.45, 1343.19 478.24 C 1342.87 480.03, 1342.95 481.01, 1343.62 482.62 C 1344.30 484.23, 1344.97 485.10, 1346.54 486.30 C 1348.12 487.49, 1349.23 487.98, 1351.50 488.60 C 1353.77 489.22, 1355.17 489.33, 1357.90 489.42 C 1360.62 489.51, 1362.19 489.38, 1365.11 489.05 C 1368.04 488.73, 1369.63 488.40, 1372.51 487.78 C 1375.38 487.16, 1376.90 486.78, 1379.49 485.95 C 1382.08 485.12, 1383.34 484.62, 1385.47 483.62 C 1387.60 482.62, 1388.56 482.06, 1390.15 480.96 C 1391.73 479.86, 1392.36 479.27, 1393.40 478.11 C 1394.44 476.95, 1394.81 476.33, 1395.34 475.17 C 1395.86 474.01, 1396.08 473.33, 1396.02 472.32 C 1395.97 471.31, 1395.68 470.57, 1395.07 470.14 C 1394.47 469.71, 1393.58 469.84, 1392.99 470.17 C 1392.40 470.50, 1392.38 471.14, 1392.10 471.79 C 1391.82 472.43, 1391.95 472.71, 1391.60 473.39 C 1391.25 474.07, 1391.12 474.44, 1390.34 475.18 C 1389.56 475.93, 1389.05 476.33, 1387.68 477.11 C 1386.32 477.90, 1385.46 478.35, 1383.52 479.11 C 1381.58 479.87, 1380.41 480.26, 1377.99 480.92 C 1375.57 481.59, 1374.13 481.94, 1371.44 482.42 C 1368.75 482.91, 1367.22 483.13, 1364.55 483.36 C 1361.87 483.59, 1360.43 483.62, 1358.06 483.57 C 1355.70 483.52, 1354.53 483.38, 1352.72 483.10 C 1350.92 482.82, 1350.16 482.60, 1349.03 482.17 C 1347.91 481.73, 1347.49 481.53, 1347.09 480.94 C 1346.69 480.34, 1346.68 480.07, 1347.03 479.20 C 1347.38 478.34, 1347.74 477.72, 1348.83 476.60 C 1349.93 475.48, 1350.73 474.81, 1352.50 473.61 C 1354.27 472.41, 1355.48 471.71, 1357.69 470.60 C 1359.91 469.50, 1361.30 468.91, 1363.60 468.09 C 1365.89 467.27, 1367.19 466.96, 1369.18 466.52 C 1371.17 466.08, 1372.12 466.07, 1373.53 465.90 C 1374.93 465.73, 1375.46 465.78, 1376.20 465.65 C 1376.95 465.52, 1377.09 465.35, 1377.24 465.26 C 1377.38 465.16, 1377.31 465.04, 1376.93 465.17 C 1376.54 465.30, 1376.23 465.49, 1375.30 465.91 C 1374.38 466.33, 1373.70 466.67, 1372.29 467.27 C 1370.87 467.87, 1369.95 468.26, 1368.22 468.89 C 1366.49 469.51, 1365.45 469.87, 1363.63 470.40 C 1361.82 470.94, 1360.81 471.15, 1359.15 471.58 C 1357.49 472.00, 1356.60 472.11, 1355.34 472.53 C 1354.07 472.94, 1353.60 473.19, 1352.83 473.66 C 1352.06 474.13, 1351.75 474.24, 1351.47 474.89 C 1351.20 475.53, 1351.11 476.24, 1351.46 476.90"
       style="stroke:#000000;fill:#000000;stroke-opacity:1;stroke-width:4;stroke-dasharray:none"
       id="path29" />
    <path
       d="M 1400.55,464.36 C 1399.84 464.39, 1399.60 464.66, 1398.89 465.22 C 1398.18 465.78, 1397.77 466.12, 1396.99 467.17 C 1396.21 468.21, 1395.76 469.04, 1395.00 470.43 C 1394.24 471.82, 1393.89 472.71, 1393.21 474.11 C 1392.53 475.51, 1392.05 476.21, 1391.59 477.44 C 1391.13 478.66, 1390.83 479.26, 1390.93 480.23 C 1391.02 481.20, 1391.35 481.76, 1392.07 482.29 C 1392.80 482.82, 1393.50 483.05, 1394.55 482.87 C 1395.61 482.68, 1396.17 482.30, 1397.34 481.36 C 1398.51 480.41, 1399.02 479.57, 1400.42 478.14 C 1401.81 476.71, 1402.61 475.74, 1404.32 474.21 C 1406.03 472.68, 1407.07 471.83, 1408.96 470.48 C 1410.86 469.12, 1411.98 468.45, 1413.81 467.43 C 1415.63 466.42, 1416.62 465.98, 1418.10 465.39 C 1419.59 464.79, 1420.28 464.63, 1421.24 464.47 C 1422.20 464.31, 1422.52 464.32, 1422.91 464.57 C 1423.29 464.81, 1423.23 464.99, 1423.16 465.68 C 1423.08 466.37, 1422.90 466.87, 1422.55 468.02 C 1422.20 469.18, 1421.93 469.96, 1421.40 471.46 C 1420.87 472.96, 1420.50 473.92, 1419.92 475.53 C 1419.34 477.14, 1418.95 478.04, 1418.49 479.52 C 1418.04 481.00, 1417.83 481.76, 1417.64 482.92 C 1417.45 484.08, 1417.41 484.55, 1417.55 485.30 C 1417.69 486.06, 1418.02 486.36, 1418.35 486.70 C 1418.67 487.05, 1418.90 487.04, 1419.18 487.03 C 1419.45 487.01, 1419.52 486.75, 1419.74 486.64 C 1419.95 486.53, 1419.97 486.62, 1420.23 486.48 C 1420.50 486.34, 1420.72 486.36, 1421.07 485.93 C 1421.42 485.50, 1421.52 485.22, 1422.00 484.33 C 1422.47 483.44, 1422.78 482.82, 1423.44 481.49 C 1424.10 480.17, 1424.57 479.35, 1425.31 477.72 C 1426.04 476.08, 1426.58 475.11, 1427.12 473.31 C 1427.67 471.52, 1427.98 470.49, 1428.01 468.75 C 1428.05 467.01, 1427.91 466.03, 1427.30 464.61 C 1426.68 463.19, 1426.14 462.49, 1424.93 461.64 C 1423.72 460.78, 1422.90 460.50, 1421.25 460.33 C 1419.60 460.15, 1418.65 460.30, 1416.68 460.78 C 1414.71 461.25, 1413.59 461.70, 1411.42 462.69 C 1409.25 463.69, 1408.01 464.38, 1405.82 465.75 C 1403.62 467.12, 1402.45 468.00, 1400.45 469.55 C 1398.44 471.10, 1397.37 471.99, 1395.81 473.50 C 1394.24 475.02, 1393.46 475.82, 1392.62 477.13 C 1391.77 478.44, 1391.60 479.11, 1391.58 480.04 C 1391.57 480.98, 1391.99 481.45, 1392.55 481.81 C 1393.11 482.17, 1393.65 482.21, 1394.37 481.85 C 1395.09 481.50, 1395.38 480.99, 1396.16 480.04 C 1396.94 479.09, 1397.39 478.37, 1398.28 477.09 C 1399.18 475.81, 1399.80 475.04, 1400.63 473.64 C 1401.47 472.24, 1401.97 471.39, 1402.45 470.09 C 1402.93 468.78, 1403.02 468.12, 1403.02 467.12 C 1403.03 466.12, 1402.96 465.64, 1402.46 465.09 C 1401.97 464.54, 1401.26 464.33, 1400.55 464.36"
       style="stroke:#000000;fill:#000000;stroke-opacity:1;stroke-width:4;stroke-dasharray:none"
       id="path30" />
    <path
       d="M 1456.93,438.17 C 1456.28 438.24, 1456.14 438.37, 1455.46 439.00 C 1454.79 439.62, 1454.38 439.98, 1453.55 441.27 C 1452.72 442.56, 1452.30 443.50, 1451.30 445.44 C 1450.31 447.37, 1449.76 448.62, 1448.58 450.94 C 1447.39 453.25, 1446.65 454.57, 1445.39 457.02 C 1444.13 459.46, 1443.43 460.78, 1442.28 463.16 C 1441.14 465.54, 1440.59 466.75, 1439.67 468.90 C 1438.76 471.05, 1438.36 472.06, 1437.71 473.90 C 1437.07 475.74, 1436.78 476.61, 1436.45 478.09 C 1436.13 479.57, 1436.11 480.30, 1436.08 481.30 C 1436.06 482.30, 1436.13 482.56, 1436.33 483.09 C 1436.54 483.61, 1436.84 483.72, 1437.13 483.92 C 1437.41 484.12, 1437.58 484.06, 1437.75 484.07 C 1437.93 484.07, 1437.83 483.97, 1437.99 483.95 C 1438.15 483.93, 1438.26 484.05, 1438.55 483.95 C 1438.84 483.85, 1439.13 483.84, 1439.44 483.44 C 1439.76 483.05, 1439.83 482.80, 1440.12 481.97 C 1440.40 481.14, 1440.45 480.54, 1440.86 479.27 C 1441.27 477.99, 1441.48 477.24, 1442.16 475.59 C 1442.84 473.93, 1443.27 472.99, 1444.25 470.99 C 1445.23 468.99, 1445.82 467.85, 1447.05 465.60 C 1448.28 463.36, 1449.02 462.12, 1450.39 459.76 C 1451.76 457.41, 1452.60 456.13, 1453.92 453.84 C 1455.24 451.56, 1455.96 450.35, 1456.98 448.34 C 1458.00 446.33, 1458.52 445.38, 1459.01 443.81 C 1459.51 442.24, 1459.53 441.52, 1459.47 440.48 C 1459.41 439.45, 1459.22 439.10, 1458.71 438.63 C 1458.20 438.17, 1457.58 438.09, 1456.93 438.17"
       style="stroke:#000000;fill:#000000;stroke-opacity:1;stroke-width:4;stroke-dasharray:none"
       id="path31" />
    <path
       d="M 1434.19,465.29 C 1434.70 465.82, 1435.13 465.88, 1436.30 466.06 C 1437.46 466.25, 1438.20 466.26, 1440.00 466.21 C 1441.79 466.16, 1442.99 465.99, 1445.29 465.81 C 1447.58 465.63, 1448.97 465.47, 1451.47 465.34 C 1453.96 465.21, 1455.35 465.18, 1457.77 465.16 C 1460.19 465.14, 1461.56 465.29, 1463.57 465.23 C 1465.58 465.18, 1466.46 465.08, 1467.83 464.88 C 1469.20 464.69, 1469.86 464.69, 1470.43 464.26 C 1471.00 463.83, 1471.13 463.35, 1470.70 462.75 C 1470.27 462.14, 1469.65 461.76, 1468.29 461.22 C 1466.93 460.68, 1466.00 460.39, 1463.92 460.06 C 1461.83 459.73, 1460.39 459.70, 1457.88 459.58 C 1455.36 459.46, 1453.94 459.49, 1451.34 459.47 C 1448.74 459.44, 1447.31 459.34, 1444.88 459.47 C 1442.45 459.60, 1441.09 459.68, 1439.19 460.12 C 1437.29 460.56, 1436.48 461.00, 1435.38 461.66 C 1434.29 462.31, 1433.94 462.66, 1433.70 463.39 C 1433.46 464.11, 1433.67 464.75, 1434.19 465.29"
       style="stroke:#000000;fill:#000000;stroke-opacity:1;stroke-width:4;stroke-dasharray:none"
       id="path32" />
  </g>
</svg>
